<svg width="964" height="558" xmlns="http://www.w3.org/2000/svg" xmlns:xlink="http://www.w3.org/1999/xlink" overflow="hidden"><g transform="translate(4 -7)"><rect x="833" y="526" width="111" height="34" fill="#D9D9D9"/><text font-family="Arial,Arial_MSFontService,sans-serif" font-weight="400" font-size="19" transform="translate(845.974 548)">Abschluss</text><path d="M45.0926 533.5 52.5001 543.311 45.0926 553.5 45.0926 553.5 37.5001 543.311 45.0926 533.5Z" stroke="#333333" stroke-width="0" stroke-linejoin="round" stroke-miterlimit="10" fill="#575757" fill-rule="evenodd"/><rect x="52" y="526" width="146" height="34" fill="#D9D9D9"/><text font-family="Arial,Arial_MSFontService,sans-serif" font-weight="400" font-size="19" transform="translate(70.6391 547)">Initialisierung</text><path d="M952.093 533.5 959.5 543.311 952.093 553.5 952.093 553.5 944.5 543.311 952.093 533.5Z" stroke="#333333" stroke-width="0" stroke-linejoin="round" stroke-miterlimit="10" fill="#575757" fill-rule="evenodd"/><rect x="627" y="526" width="191" height="34" fill="#B7D5F1"/><text font-family="Arial,Arial_MSFontService,sans-serif" font-weight="400" font-size="19" transform="translate(677.183 547)">Einführung</text><rect x="419" y="526" width="192" height="34" fill="#B7D5F1"/><text font-family="Arial,Arial_MSFontService,sans-serif" font-weight="400" font-size="19" transform="translate(463.189 547)">Realisierung</text><rect x="214" y="526" width="189" height="34" fill="#B7D5F1"/><text font-family="Arial,Arial_MSFontService,sans-serif" font-weight="400" font-size="19" transform="translate(274.255 547)">Konzept</text><path d="M619.093 533.5 626.5 543.311 619.093 553.5 619.093 553.5 611.5 543.311 619.093 533.5Z" stroke="#333333" stroke-width="0" stroke-linejoin="round" stroke-miterlimit="10" fill="#575757" fill-rule="evenodd"/><path d="M411.093 533.5 418.5 543.311 411.093 553.5 411.093 553.5 403.5 543.311 411.093 533.5Z" stroke="#333333" stroke-width="0" stroke-linejoin="round" stroke-miterlimit="10" fill="#575757" fill-rule="evenodd"/><path d="M206.093 533.5 213.5 543.311 206.093 553.5 206.093 553.5 198.5 543.311 206.093 533.5Z" stroke="#333333" stroke-width="0" stroke-linejoin="round" stroke-miterlimit="10" fill="#575757" fill-rule="evenodd"/><path d="M826.093 533.5 833.5 543.311 826.093 553.5 826.093 553.5 818.5 543.311 826.093 533.5Z" stroke="#333333" stroke-width="0" stroke-linejoin="round" stroke-miterlimit="10" fill="#575757" fill-rule="evenodd"/><path d="M53.5001 8.50005 53.5002 513.305" stroke="#000000" stroke-width="1.33333" stroke-linejoin="round" stroke-miterlimit="10" fill="none" fill-rule="evenodd"/><path d="M0 0 916.854 0.000104987" stroke="#000000" stroke-width="1.33333" stroke-linejoin="round" stroke-miterlimit="10" fill="none" fill-rule="evenodd" transform="matrix(-1 0 0 1 945.354 488.5)"/><text font-family="Arial,Arial_MSFontService,sans-serif" font-weight="400" font-size="15" transform="translate(461.311 510)">Zeit</text><path d="M6.66667-0.666646 34.5221-0.666562 34.5221 0.666772 6.66666 0.666687ZM7.99999 4.00002 0 0 8.00001-3.99998Z" transform="matrix(-1 0 0 1 529.022 507.5)"/><path d="M0 0C168.688 219.405 301.593 249.873 892 310" stroke="#000000" stroke-width="1.33333" stroke-linejoin="round" stroke-miterlimit="10" fill="none" fill-rule="evenodd" transform="matrix(1 0 0 -1 53.5001 318.5)"/><text font-family="Arial,Arial_MSFontService,sans-serif" font-weight="400" font-size="15" transform="matrix(0.978708 -0.205257 0.205257 0.978708 391.598 111)">Kenntnisse über die Lösung</text><path d="M53.5001 157.5C222.188 376.905 355.093 407.373 945.5 467.5" stroke="#000000" stroke-width="1.33333" stroke-linejoin="round" stroke-miterlimit="10" fill="none" fill-rule="evenodd"/><text font-family="Arial,Arial_MSFontService,sans-serif" font-weight="400" font-size="15" transform="matrix(0.979923 0.199375 -0.199375 0.979923 391.074 376)">Ungenauigkeit der Planung</text><path d="M28.1741 79.1657 28.5801 443.783 27.2468 443.784 26.8408 79.1672ZM23.509 80.5045 27.5001 72.5001 31.509 80.4956ZM31.9119 442.446 27.9208 450.45 23.9119 442.455Z"/><text font-family="Arial,Arial_MSFontService,sans-serif" font-weight="400" font-size="15" transform="translate(7.18514 469)">gering</text><text font-family="Arial,Arial_MSFontService,sans-serif" font-weight="400" font-size="15" transform="translate(11.1416 64)">hoch</text></g></svg>