<svg width="881" height="235" xmlns="http://www.w3.org/2000/svg" xmlns:xlink="http://www.w3.org/1999/xlink" overflow="hidden"><g transform="translate(6 -7)"><path d="M20.4961 212.857 24.4961 212.865C24.8643 212.866 25.1621 213.165 25.1614 213.533 25.1607 213.901 24.8616 214.199 24.4934 214.198L20.4934 214.19C20.1253 214.19 19.8274 213.891 19.8281 213.522 19.8288 213.154 20.1279 212.856 20.4961 212.857ZM29.8294 212.875 33.8294 212.883C34.1976 212.884 34.4955 213.183 34.4947 213.551 34.494 213.919 34.1949 214.217 33.8268 214.217L29.8268 214.209C29.4586 214.208 29.1607 213.909 29.1614 213.541 29.1621 213.173 29.4612 212.875 29.8294 212.875ZM39.1627 212.894 43.1627 212.902C43.5309 212.902 43.8288 213.201 43.828 213.57 43.8273 213.938 43.5283 214.236 43.1601 214.235L39.1601 214.227C38.7919 214.226 38.494 213.927 38.4947 213.559 38.4954 213.191 38.7945 212.893 39.1627 212.894ZM48.496 212.912 52.496 212.92C52.8642 212.921 53.1621 213.22 53.1614 213.588 53.1606 213.956 52.8616 214.254 52.4934 214.253L48.4934 214.246C48.1252 214.245 47.8273 213.946 47.828 213.578 47.8288 213.209 48.1278 212.911 48.496 212.912ZM57.8293 212.931 61.8293 212.939C62.1975 212.939 62.4954 213.238 62.4947 213.606 62.4939 213.975 62.1949 214.273 61.8267 214.272L57.8267 214.264C57.4585 214.263 57.1606 213.964 57.1614 213.596 57.1621 213.228 57.4611 212.93 57.8293 212.931ZM67.1626 212.949 71.1626 212.957C71.5308 212.958 71.8287 213.257 71.828 213.625 71.8273 213.993 71.5282 214.291 71.16 214.29L67.16 214.282C66.7918 214.282 66.4939 213.983 66.4947 213.614 66.4954 213.246 66.7944 212.948 67.1626 212.949ZM76.496 212.967 80.4959 212.975C80.8641 212.976 81.162 213.275 81.1613 213.643 81.1606 214.011 80.8615 214.309 80.4933 214.309L76.4933 214.301C76.1251 214.3 75.8273 214.001 75.828 213.633 75.8287 213.265 76.1278 212.967 76.496 212.967ZM85.8293 212.986 89.8293 212.994C90.1974 212.994 90.4953 213.293 90.4946 213.662 90.4939 214.03 90.1948 214.328 89.8266 214.327L85.8266 214.319C85.4585 214.318 85.1606 214.019 85.1613 213.651 85.162 213.283 85.4611 212.985 85.8293 212.986ZM95.1626 213.004 99.1626 213.012C99.5308 213.013 99.8287 213.312 99.8279 213.68 99.8272 214.048 99.5281 214.346 99.16 214.345L95.16 214.338C94.7918 214.337 94.4939 214.038 94.4946 213.67 94.4953 213.301 94.7944 213.003 95.1626 213.004ZM104.496 213.023 108.496 213.031C108.864 213.031 109.162 213.33 109.161 213.698 109.161 214.067 108.861 214.365 108.493 214.364L104.493 214.356C104.125 214.355 103.827 214.056 103.828 213.688 103.829 213.32 104.128 213.022 104.496 213.023ZM113.829 213.041 117.829 213.049C118.197 213.05 118.495 213.349 118.495 213.717 118.494 214.085 118.195 214.383 117.827 214.382L113.827 214.374C113.458 214.374 113.161 214.075 113.161 213.706 113.162 213.338 113.461 213.04 113.829 213.041ZM123.163 213.059 127.163 213.067C127.531 213.068 127.829 213.367 127.828 213.735 127.827 214.103 127.528 214.401 127.16 214.401L123.16 214.393C122.792 214.392 122.494 214.093 122.495 213.725 122.495 213.357 122.794 213.059 123.163 213.059ZM132.496 213.078 136.496 213.086C136.864 213.086 137.162 213.385 137.161 213.754 137.16 214.122 136.861 214.42 136.493 214.419L132.493 214.411C132.125 214.41 131.827 214.111 131.828 213.743 131.829 213.375 132.128 213.077 132.496 213.078ZM141.829 213.096 145.829 213.104C146.197 213.105 146.495 213.404 146.494 213.772 146.494 214.14 146.195 214.438 145.826 214.437L141.827 214.43C141.458 214.429 141.16 214.13 141.161 213.762 141.162 213.393 141.461 213.095 141.829 213.096ZM151.162 213.115 155.162 213.122C155.531 213.123 155.829 213.422 155.828 213.79 155.827 214.159 155.528 214.457 155.16 214.456L151.16 214.448C150.792 214.447 150.494 214.148 150.494 213.78 150.495 213.412 150.794 213.114 151.162 213.115ZM160.496 213.133 164.496 213.141C164.864 213.142 165.162 213.441 165.161 213.809 165.16 214.177 164.861 214.475 164.493 214.474L160.493 214.466C160.125 214.466 159.827 214.167 159.828 213.798 159.828 213.43 160.128 213.132 160.496 213.133ZM169.829 213.151 173.829 213.159C174.197 213.16 174.495 213.459 174.494 213.827 174.494 214.195 174.195 214.493 173.826 214.493L169.826 214.485C169.458 214.484 169.16 214.185 169.161 213.817 169.162 213.449 169.461 213.151 169.829 213.151ZM179.162 213.17 183.162 213.178C183.531 213.178 183.828 213.477 183.828 213.846 183.827 214.214 183.528 214.512 183.16 214.511L179.16 214.503C178.792 214.502 178.494 214.203 178.494 213.835 178.495 213.467 178.794 213.169 179.162 213.17ZM188.496 213.188 192.496 213.196C192.864 213.197 193.162 213.496 193.161 213.864 193.16 214.232 192.861 214.53 192.493 214.529L188.493 214.522C188.125 214.521 187.827 214.222 187.828 213.854 187.828 213.485 188.127 213.187 188.496 213.188ZM197.829 213.207 201.829 213.214C202.197 213.215 202.495 213.514 202.494 213.882 202.494 214.251 202.195 214.549 201.826 214.548L197.826 214.54C197.458 214.539 197.16 214.24 197.161 213.872 197.162 213.504 197.461 213.206 197.829 213.207ZM207.162 213.225 211.162 213.233C211.53 213.234 211.828 213.533 211.828 213.901 211.827 214.269 211.528 214.567 211.16 214.566L207.16 214.558C206.791 214.558 206.494 214.259 206.494 213.89 206.495 213.522 206.794 213.224 207.162 213.225ZM216.496 213.243 220.496 213.251C220.864 213.252 221.162 213.551 221.161 213.919 221.16 214.287 220.861 214.585 220.493 214.585L216.493 214.577C216.125 214.576 215.827 214.277 215.828 213.909 215.828 213.541 216.127 213.243 216.496 213.243ZM225.829 213.262 229.829 213.27C230.197 213.27 230.495 213.569 230.494 213.938 230.493 214.306 230.194 214.604 229.826 214.603L225.826 214.595C225.458 214.594 225.16 214.295 225.161 213.927 225.162 213.559 225.461 213.261 225.829 213.262ZM235.162 213.28 239.162 213.288C239.53 213.289 239.828 213.588 239.828 213.956 239.827 214.324 239.528 214.622 239.16 214.621L235.16 214.614C234.791 214.613 234.493 214.314 234.494 213.946 234.495 213.577 234.794 213.279 235.162 213.28ZM244.496 213.299 248.496 213.306C248.864 213.307 249.162 213.606 249.161 213.974 249.16 214.343 248.861 214.641 248.493 214.64L244.493 214.632C244.125 214.631 243.827 214.332 243.828 213.964 243.828 213.596 244.127 213.298 244.496 213.299ZM253.829 213.317 257.829 213.325C258.197 213.326 258.495 213.625 258.494 213.993 258.493 214.361 258.194 214.659 257.826 214.658L253.826 214.65C253.458 214.65 253.16 214.351 253.161 213.982 253.162 213.614 253.461 213.316 253.829 213.317ZM263.162 213.335 267.162 213.343C267.53 213.344 267.828 213.643 267.828 214.011 267.827 214.379 267.528 214.677 267.16 214.677L263.16 214.669C262.791 214.668 262.493 214.369 262.494 214.001 262.495 213.633 262.794 213.335 263.162 213.335ZM272.496 213.354 276.496 213.362C276.864 213.362 277.162 213.661 277.161 214.03 277.16 214.398 276.861 214.696 276.493 214.695L272.493 214.687C272.125 214.686 271.827 214.387 271.828 214.019 271.828 213.651 272.127 213.353 272.496 213.354ZM281.829 213.372 285.829 213.38C286.197 213.381 286.495 213.68 286.494 214.048 286.494 214.416 286.194 214.714 285.826 214.713L281.826 214.706C281.458 214.705 281.16 214.406 281.161 214.038 281.162 213.669 281.461 213.371 281.829 213.372ZM291.162 213.391 295.162 213.398C295.53 213.399 295.828 213.698 295.828 214.066 295.827 214.435 295.528 214.733 295.16 214.732L291.16 214.724C290.791 214.723 290.494 214.424 290.494 214.056 290.495 213.688 290.794 213.39 291.162 213.391ZM300.496 213.409 304.496 213.417C304.864 213.418 305.162 213.717 305.161 214.085 305.16 214.453 304.861 214.751 304.493 214.75L300.493 214.742C300.125 214.742 299.827 214.443 299.828 214.074 299.828 213.706 300.127 213.408 300.496 213.409ZM309.829 213.427 313.829 213.435C314.197 213.436 314.495 213.735 314.494 214.103 314.494 214.471 314.194 214.769 313.826 214.769L309.826 214.761C309.458 214.76 309.16 214.461 309.161 214.093 309.162 213.725 309.461 213.427 309.829 213.427ZM319.162 213.446 323.162 213.454C323.53 213.454 323.828 213.753 323.828 214.122 323.827 214.49 323.528 214.788 323.16 214.787L319.16 214.779C318.791 214.778 318.494 214.479 318.494 214.111 318.495 213.743 318.794 213.445 319.162 213.446ZM328.496 213.464 332.496 213.472C332.864 213.473 333.162 213.772 333.161 214.14 333.16 214.508 332.861 214.806 332.493 214.805L328.493 214.798C328.125 214.797 327.827 214.498 327.828 214.13 327.828 213.761 328.127 213.463 328.496 213.464ZM337.829 213.483 341.829 213.49C342.197 213.491 342.495 213.79 342.494 214.158 342.494 214.527 342.194 214.825 341.826 214.824L337.826 214.816C337.458 214.815 337.16 214.516 337.161 214.148 337.162 213.78 337.461 213.482 337.829 213.483ZM347.162 213.501 351.162 213.509C351.53 213.51 351.828 213.809 351.828 214.177 351.827 214.545 351.528 214.843 351.16 214.842L347.16 214.834C346.791 214.834 346.493 214.535 346.494 214.166 346.495 213.798 346.794 213.5 347.162 213.501ZM356.496 213.519 360.496 213.527C360.864 213.528 361.162 213.827 361.161 214.195 361.16 214.563 360.861 214.861 360.493 214.861L356.493 214.853C356.125 214.852 355.827 214.553 355.828 214.185 355.828 213.817 356.127 213.519 356.496 213.519ZM365.829 213.538 369.829 213.546C370.197 213.546 370.495 213.845 370.494 214.214 370.493 214.582 370.194 214.88 369.826 214.879L365.826 214.871C365.458 214.87 365.16 214.571 365.161 214.203 365.162 213.835 365.461 213.537 365.829 213.538ZM375.162 213.556 379.162 213.564C379.53 213.565 379.828 213.864 379.828 214.232 379.827 214.6 379.528 214.898 379.16 214.897L375.16 214.889C374.791 214.889 374.493 214.59 374.494 214.222 374.495 213.853 374.794 213.555 375.162 213.556ZM384.496 213.575 388.496 213.582C388.864 213.583 389.162 213.882 389.161 214.25 389.16 214.619 388.861 214.917 388.493 214.916L384.493 214.908C384.125 214.907 383.827 214.608 383.828 214.24 383.828 213.872 384.127 213.574 384.496 213.575ZM393.829 213.593 397.829 213.601C398.197 213.602 398.495 213.901 398.494 214.269 398.493 214.637 398.194 214.935 397.826 214.934L393.826 214.926C393.458 214.926 393.16 214.627 393.161 214.258 393.162 213.89 393.461 213.592 393.829 213.593ZM403.162 213.611 407.162 213.619C407.53 213.62 407.828 213.919 407.828 214.287 407.827 214.655 407.528 214.953 407.16 214.953L403.16 214.945C402.791 214.944 402.493 214.645 402.494 214.277 402.495 213.909 402.794 213.611 403.162 213.611ZM412.496 213.63 416.496 213.638C416.864 213.638 417.162 213.937 417.161 214.306 417.16 214.674 416.861 214.972 416.493 214.971L412.493 214.963C412.125 214.962 411.827 214.663 411.828 214.295 411.828 213.927 412.127 213.629 412.496 213.63ZM421.829 213.648 425.829 213.656C426.197 213.657 426.495 213.956 426.494 214.324 426.493 214.692 426.194 214.99 425.826 214.989L421.826 214.981C421.458 214.981 421.16 214.682 421.161 214.314 421.162 213.945 421.461 213.647 421.829 213.648ZM431.162 213.667 435.162 213.674C435.53 213.675 435.828 213.974 435.828 214.342 435.827 214.711 435.528 215.008 435.16 215.008L431.16 215C430.791 214.999 430.493 214.7 430.494 214.332 430.495 213.964 430.794 213.666 431.162 213.667ZM440.495 213.685 444.495 213.693C444.864 213.694 445.162 213.993 445.161 214.361 445.16 214.729 444.861 215.027 444.493 215.026L440.493 215.018C440.125 215.018 439.827 214.719 439.827 214.35 439.828 213.982 440.127 213.684 440.495 213.685ZM449.829 213.703 453.829 213.711C454.197 213.712 454.495 214.011 454.494 214.379 454.493 214.747 454.194 215.045 453.826 215.045L449.826 215.037C449.458 215.036 449.16 214.737 449.161 214.369 449.162 214.001 449.461 213.703 449.829 213.703ZM459.162 213.722 463.162 213.73C463.53 213.73 463.828 214.029 463.827 214.398 463.827 214.766 463.528 215.064 463.159 215.063L459.159 215.055C458.791 215.054 458.493 214.755 458.494 214.387 458.495 214.019 458.794 213.721 459.162 213.722ZM468.495 213.74 472.495 213.748C472.864 213.749 473.162 214.048 473.161 214.416 473.16 214.784 472.861 215.082 472.493 215.081L468.493 215.073C468.125 215.073 467.827 214.774 467.827 214.406 467.828 214.037 468.127 213.739 468.495 213.74ZM477.829 213.759 481.829 213.766C482.197 213.767 482.495 214.066 482.494 214.434 482.493 214.803 482.194 215.1 481.826 215.1L477.826 215.092C477.458 215.091 477.16 214.792 477.161 214.424 477.162 214.056 477.461 213.758 477.829 213.759ZM487.162 213.777 491.162 213.785C491.53 213.786 491.828 214.085 491.827 214.453 491.827 214.821 491.528 215.119 491.159 215.118L487.159 215.11C486.791 215.11 486.493 214.811 486.494 214.442 486.495 214.074 486.794 213.776 487.162 213.777ZM496.495 213.795 500.495 213.803C500.864 213.804 501.162 214.103 501.161 214.471 501.16 214.839 500.861 215.137 500.493 215.137L496.493 215.129C496.125 215.128 495.827 214.829 495.827 214.461 495.828 214.093 496.127 213.795 496.495 213.795ZM505.829 213.814 509.829 213.822C510.197 213.822 510.495 214.121 510.494 214.49 510.493 214.858 510.194 215.156 509.826 215.155L505.826 215.147C505.458 215.146 505.16 214.847 505.161 214.479 505.162 214.111 505.461 213.813 505.829 213.814ZM515.162 213.832 519.162 213.84C519.53 213.841 519.828 214.14 519.827 214.508 519.827 214.876 519.528 215.174 519.159 215.173L515.159 215.165C514.791 215.165 514.493 214.866 514.494 214.497 514.495 214.129 514.794 213.831 515.162 213.832ZM524.495 213.851 528.495 213.858C528.864 213.859 529.161 214.158 529.161 214.526 529.16 214.895 528.861 215.192 528.493 215.192L524.493 215.184C524.125 215.183 523.827 214.884 523.827 214.516 523.828 214.148 524.127 213.85 524.495 213.851ZM533.829 213.869 537.829 213.877C538.197 213.878 538.495 214.177 538.494 214.545 538.493 214.913 538.194 215.211 537.826 215.21L533.826 215.202C533.458 215.202 533.16 214.902 533.161 214.534 533.161 214.166 533.461 213.868 533.829 213.869ZM543.162 213.887 547.162 213.895C547.53 213.896 547.828 214.195 547.827 214.563 547.827 214.931 547.528 215.229 547.159 215.229L543.159 215.221C542.791 215.22 542.493 214.921 542.494 214.553 542.495 214.185 542.794 213.887 543.162 213.887ZM552.495 213.906 556.495 213.914C556.864 213.914 557.161 214.213 557.161 214.582 557.16 214.95 556.861 215.248 556.493 215.247L552.493 215.239C552.125 215.238 551.827 214.939 551.827 214.571 551.828 214.203 552.127 213.905 552.495 213.906ZM561.829 213.924 565.829 213.932C566.197 213.933 566.495 214.232 566.494 214.6 566.493 214.968 566.194 215.266 565.826 215.265L561.826 215.257C561.458 215.257 561.16 214.958 561.161 214.589 561.161 214.221 561.461 213.923 561.829 213.924ZM571.162 213.943 575.162 213.95C575.53 213.951 575.828 214.25 575.827 214.618 575.827 214.987 575.528 215.284 575.159 215.284L571.159 215.276C570.791 215.275 570.493 214.976 570.494 214.608 570.495 214.24 570.794 213.942 571.162 213.943ZM580.495 213.961 584.495 213.969C584.864 213.97 585.161 214.269 585.161 214.637 585.16 215.005 584.861 215.303 584.493 215.302L580.493 215.294C580.125 215.294 579.827 214.994 579.827 214.626 579.828 214.258 580.127 213.96 580.495 213.961ZM589.829 213.979 593.829 213.987C594.197 213.988 594.495 214.287 594.494 214.655 594.493 215.023 594.194 215.321 593.826 215.321L589.826 215.313C589.458 215.312 589.16 215.013 589.161 214.645 589.161 214.277 589.461 213.979 589.829 213.979ZM599.162 213.998 603.162 214.006C603.53 214.006 603.828 214.305 603.827 214.674 603.827 215.042 603.528 215.34 603.159 215.339L599.159 215.331C598.791 215.33 598.493 215.031 598.494 214.663 598.495 214.295 598.794 213.997 599.162 213.998ZM608.495 214.016 612.495 214.024C612.864 214.025 613.161 214.324 613.161 214.692 613.16 215.06 612.861 215.358 612.493 215.357L608.493 215.349C608.125 215.349 607.827 215.05 607.827 214.681 607.828 214.313 608.127 214.015 608.495 214.016ZM617.829 214.035 621.829 214.042C622.197 214.043 622.495 214.342 622.494 214.71 622.493 215.079 622.194 215.376 621.826 215.376L617.826 215.368C617.458 215.367 617.16 215.068 617.161 214.7 617.161 214.332 617.461 214.034 617.829 214.035ZM627.162 214.053 631.162 214.061C631.53 214.062 631.828 214.361 631.827 214.729 631.827 215.097 631.528 215.395 631.159 215.394L627.159 215.386C626.791 215.386 626.493 215.086 626.494 214.718 626.495 214.35 626.794 214.052 627.162 214.053ZM636.495 214.071 640.495 214.079C640.864 214.08 641.161 214.379 641.161 214.747 641.16 215.115 640.861 215.413 640.493 215.413L636.493 215.405C636.125 215.404 635.827 215.105 635.827 214.737 635.828 214.368 636.127 214.071 636.495 214.071ZM645.829 214.09 649.829 214.098C650.197 214.098 650.495 214.397 650.494 214.766 650.493 215.134 650.194 215.432 649.826 215.431L645.826 215.423C645.458 215.422 645.16 215.123 645.161 214.755 645.161 214.387 645.461 214.089 645.829 214.09ZM655.162 214.108 659.162 214.116C659.53 214.117 659.828 214.416 659.827 214.784 659.827 215.152 659.528 215.45 659.159 215.449L655.159 215.441C654.791 215.441 654.493 215.142 654.494 214.773 654.495 214.405 654.794 214.107 655.162 214.108ZM664.495 214.127 668.495 214.134C668.864 214.135 669.161 214.434 669.161 214.802 669.16 215.171 668.861 215.468 668.493 215.468L664.493 215.46C664.125 215.459 663.827 215.16 663.827 214.792 663.828 214.424 664.127 214.126 664.495 214.127ZM673.829 214.145 677.829 214.153C678.197 214.154 678.495 214.453 678.494 214.821 678.493 215.189 678.194 215.487 677.826 215.486L673.826 215.478C673.458 215.478 673.16 215.178 673.161 214.81 673.161 214.442 673.46 214.144 673.829 214.145ZM683.162 214.163 687.162 214.171C687.53 214.172 687.828 214.471 687.827 214.839 687.827 215.207 687.527 215.505 687.159 215.505L683.159 215.497C682.791 215.496 682.493 215.197 682.494 214.829 682.495 214.46 682.794 214.163 683.162 214.163ZM692.495 214.182 696.495 214.19C696.863 214.19 697.161 214.489 697.161 214.858 697.16 215.226 696.861 215.524 696.493 215.523L692.493 215.515C692.124 215.514 691.826 215.215 691.827 214.847 691.828 214.479 692.127 214.181 692.495 214.182ZM701.828 214.2 705.828 214.208C706.197 214.209 706.495 214.508 706.494 214.876 706.493 215.244 706.194 215.542 705.826 215.541L701.826 215.533C701.458 215.533 701.16 215.234 701.161 214.865 701.161 214.497 701.46 214.199 701.828 214.2ZM711.162 214.219 715.162 214.226C715.53 214.227 715.828 214.526 715.827 214.894 715.826 215.263 715.527 215.56 715.159 215.56L711.159 215.552C710.791 215.551 710.493 215.252 710.494 214.884 710.495 214.516 710.794 214.218 711.162 214.219ZM720.495 214.237 724.495 214.245C724.863 214.246 725.161 214.545 725.16 214.913 725.16 215.281 724.861 215.579 724.492 215.578L720.492 215.57C720.124 215.57 719.826 215.27 719.827 214.902 719.828 214.534 720.127 214.236 720.495 214.237ZM729.828 214.255 733.828 214.263C734.197 214.264 734.494 214.563 734.494 214.931 734.493 215.299 734.194 215.597 733.826 215.597L729.826 215.589C729.458 215.588 729.16 215.289 729.16 214.921 729.161 214.552 729.46 214.255 729.828 214.255ZM739.162 214.274 743.162 214.282C743.53 214.282 743.828 214.581 743.827 214.95 743.826 215.318 743.527 215.616 743.159 215.615L739.159 215.607C738.791 215.606 738.493 215.307 738.494 214.939 738.494 214.571 738.793 214.273 739.162 214.274ZM748.495 214.292 752.495 214.3C752.863 214.301 753.161 214.6 753.16 214.968 753.16 215.336 752.861 215.634 752.492 215.633L748.492 215.625C748.124 215.625 747.826 215.326 747.827 214.957 747.828 214.589 748.127 214.291 748.495 214.292ZM757.828 214.311 761.828 214.318C762.196 214.319 762.494 214.618 762.494 214.986 762.493 215.355 762.194 215.652 761.826 215.652L757.826 215.644C757.457 215.643 757.159 215.344 757.16 214.976 757.161 214.608 757.46 214.31 757.828 214.311ZM767.161 214.329 771.161 214.337C771.53 214.338 771.828 214.637 771.827 215.005 771.826 215.373 771.527 215.671 771.159 215.67L767.159 215.662C766.791 215.662 766.493 215.362 766.494 214.994 766.494 214.626 766.793 214.328 767.161 214.329ZM776.495 214.347 780.495 214.355C780.863 214.356 781.161 214.655 781.16 215.023 781.159 215.391 780.86 215.689 780.492 215.689L776.492 215.681C776.124 215.68 775.826 215.381 775.827 215.013 775.828 214.644 776.127 214.347 776.495 214.347ZM785.828 214.366 789.828 214.374C790.196 214.374 790.494 214.673 790.493 215.042 790.493 215.41 790.194 215.708 789.825 215.707L785.825 215.699C785.457 215.698 785.159 215.399 785.16 215.031 785.161 214.663 785.46 214.365 785.828 214.366ZM795.161 214.384 799.161 214.392C799.53 214.393 799.827 214.692 799.827 215.06 799.826 215.428 799.527 215.726 799.159 215.725L795.159 215.717C794.791 215.717 794.493 215.418 794.493 215.049 794.494 214.681 794.793 214.383 795.161 214.384ZM804.495 214.403 808.495 214.41C808.863 214.411 809.161 214.71 809.16 215.078 809.159 215.447 808.86 215.744 808.492 215.744L804.492 215.736C804.124 215.735 803.826 215.436 803.827 215.068 803.827 214.7 804.126 214.402 804.495 214.403ZM813.828 214.421 817.828 214.429C818.196 214.43 818.494 214.729 818.493 215.097 818.493 215.465 818.194 215.763 817.825 215.762L813.825 215.754C813.457 215.754 813.159 215.454 813.16 215.086 813.161 214.718 813.46 214.42 813.828 214.421ZM823.161 214.439 827.161 214.447C827.529 214.448 827.827 214.747 827.827 215.115 827.826 215.483 827.527 215.781 827.159 215.781L823.159 215.773C822.79 215.772 822.493 215.473 822.493 215.105 822.494 214.736 822.793 214.439 823.161 214.439ZM832.495 214.458 836.495 214.466C836.863 214.466 837.161 214.765 837.16 215.134 837.159 215.502 836.86 215.8 836.492 215.799L832.492 215.791C832.124 215.79 831.826 215.491 831.827 215.123 831.827 214.755 832.126 214.457 832.495 214.458ZM841.828 214.476 845.828 214.484C846.196 214.485 846.494 214.784 846.493 215.152 846.492 215.52 846.193 215.818 845.825 215.817L841.825 215.809C841.457 215.809 841.159 215.51 841.16 215.141 841.161 214.773 841.46 214.475 841.828 214.476ZM21.8255 217.526 8.50005 213.5 21.8412 209.526ZM849.543 211.158 862.868 215.184 849.527 219.158Z"/><rect x="380" y="200" width="109" height="31" fill="#FFFFFF"/><path d="M2 0 0.236942 0 0 1 2 0Z" stroke="#385D8A" stroke-width="0.333333" stroke-linejoin="round" stroke-miterlimit="10" fill="#C0504D" fill-rule="evenodd" transform="matrix(-1 0 0 1 796.5 153.5)"/><path d="M1 0 0 0.322643 0.632805 1 1 0Z" stroke="#385D8A" stroke-width="0.333333" stroke-linejoin="round" stroke-miterlimit="10" fill="#C0504D" fill-rule="evenodd" transform="matrix(-1 0 0 1 797.5 154.5)"/><path d="M184.5 100.5 184.5 103.201C184.5 112.397 178.195 119.851 170.417 119.851 151.639 119.851 132.861 119.851 114.083 119.851 106.305 119.851 99.9999 127.305 99.9999 136.5 99.9999 127.305 93.6949 119.851 85.9171 119.851L29.5828 119.851C21.805 119.851 15.5 112.396 15.5 103.201L15.5 100.5" stroke="#000000" stroke-width="1.33333" stroke-linecap="round" stroke-linejoin="round" stroke-miterlimit="10" stroke-dasharray="4 5.33333" fill="none" fill-rule="evenodd"/><text font-family="Arial,Arial_MSFontService,sans-serif" font-weight="400" font-size="24" transform="translate(396.75 221)">Projekt</text><rect x="175" y="43" width="18" height="21" fill="#FFFFFF"/><rect x="677" y="43" width="18" height="21" fill="#FFFFFF"/><rect x="844" y="43" width="18" height="21" fill="#FFFFFF"/><rect x="7" y="43" width="18" height="21" fill="#FFFFFF"/><rect x="192" y="61" width="485" height="38" fill="#EBC9C7"/><text font-family="Arial,Arial_MSFontService,sans-serif" font-weight="400" font-size="21" transform="translate(380.411 88)">Umsetzung</text><rect x="526" y="8" width="151" height="38" fill="#B7D5F1"/><text font-family="Arial,Arial_MSFontService,sans-serif" font-weight="400" font-size="21" transform="translate(549.953 35)">Einführung</text><rect x="359" y="8" width="151" height="38" fill="#B7D5F1"/><text font-family="Arial,Arial_MSFontService,sans-serif" font-weight="400" font-size="21" transform="translate(375.082 35)">Realisierung</text><rect x="191" y="8" width="151" height="38" fill="#B7D5F1"/><text font-family="Arial,Arial_MSFontService,sans-serif" font-weight="400" font-size="21" transform="translate(227.739 35)">Konzept</text><path d="M518.105 16.5001 526.5 27.2925 518.105 38.5001 518.105 38.5001 509.5 27.2925 518.105 16.5001Z" stroke="#333333" stroke-width="0" stroke-linejoin="round" stroke-miterlimit="10" fill="#575757" fill-rule="evenodd"/><path d="M350.599 16.5001 358.5 27.2925 350.599 38.5001 350.599 38.5001 342.5 27.2925 350.599 16.5001Z" stroke="#333333" stroke-width="0" stroke-linejoin="round" stroke-miterlimit="10" fill="#575757" fill-rule="evenodd"/><path d="M853.599 43.5001 861.5 53.8019 853.599 64.5001 853.599 64.5001 845.5 53.8019 853.599 43.5001Z" stroke="#333333" stroke-width="0" stroke-linejoin="round" stroke-miterlimit="10" fill="#575757" fill-rule="evenodd"/><path d="M16.5988 43.5001 24.5001 53.8019 16.5988 64.5001 16.5988 64.5001 8.50005 53.8019 16.5988 43.5001Z" stroke="#333333" stroke-width="0" stroke-linejoin="round" stroke-miterlimit="10" fill="#575757" fill-rule="evenodd"/><rect x="694" y="35" width="151" height="37" fill="#D9D9D9"/><text font-family="Arial,Arial_MSFontService,sans-serif" font-weight="400" font-size="21" transform="translate(720.763 62)">Abschluss</text><rect x="24" y="35" width="151" height="37" fill="#D9D9D9"/><text font-family="Arial,Arial_MSFontService,sans-serif" font-weight="400" font-size="21" transform="translate(37.5267 62)">Initialisierung</text><path d="M685.599 43.5001 693.5 53.8019 685.599 64.5001 685.599 64.5001 677.5 53.8019 685.599 43.5001Z" stroke="#333333" stroke-width="0" stroke-linejoin="round" stroke-miterlimit="10" fill="#575757" fill-rule="evenodd"/><path d="M183.599 43.5001 191.5 53.8019 183.599 64.5001 183.599 64.5001 175.5 53.8019 183.599 43.5001Z" stroke="#333333" stroke-width="0" stroke-linejoin="round" stroke-miterlimit="10" fill="#575757" fill-rule="evenodd"/><path d="M854.5 100.5 854.5 103.201C854.5 112.397 848.195 119.851 840.417 119.851 821.639 119.851 802.861 119.851 784.083 119.851 776.305 119.851 770 127.305 770 136.5 770 127.305 763.695 119.851 755.917 119.851L699.583 119.851C691.805 119.851 685.5 112.396 685.5 103.201L685.5 100.5" stroke="#000000" stroke-width="1.33333" stroke-linecap="round" stroke-linejoin="round" stroke-miterlimit="10" stroke-dasharray="4 5.33333" fill="none" fill-rule="evenodd"/><path d="M685.5 100.5 685.5 103.201C685.5 112.397 666.809 119.851 643.751 119.851 588.084 119.851 532.416 119.851 476.748 119.851 453.691 119.851 435 127.305 435 136.5 435 127.305 416.309 119.851 393.251 119.851L226.249 119.851C203.191 119.851 184.5 112.396 184.5 103.201L184.5 100.5" stroke="#000000" stroke-width="1.33333" stroke-linecap="round" stroke-linejoin="round" stroke-miterlimit="10" stroke-dasharray="4 5.33333" fill="none" fill-rule="evenodd"/><text font-family="Arial,Arial_MSFontService,sans-serif" font-weight="400" font-size="24" transform="translate(26.2457 165)">Projektbeginn</text><text font-family="Arial,Arial_MSFontService,sans-serif" font-weight="400" font-size="24" transform="translate(704.223 165)">Projektende</text><text font-family="Arial,Arial_MSFontService,sans-serif" font-weight="400" font-size="24" transform="translate(329.566 165)">Lösungsentstehung</text></g></svg>