<svg width="1084" height="835" xmlns="http://www.w3.org/2000/svg" xmlns:xlink="http://www.w3.org/1999/xlink" overflow="hidden"><defs><radialGradient cx="2509838" cy="423863" r="2545377" fy="423862" gradientUnits="userSpaceOnUse" spreadMethod="pad" id="fill0" gradientTransform="matrix(0.000104987 0 0 0.000104987 266 619)"><stop offset="0" stop-color="#FFFFFF" stop-opacity="0"/><stop offset="0.79" stop-color="#FFFFFF" stop-opacity="0"/><stop offset="1" stop-color="#FFF8B3"/></radialGradient></defs><g transform="translate(-6 -6)"><rect x="246" y="597" width="571" height="75" fill="#FFE600"/><rect x="246" y="665" width="571" height="75" fill="#FFF8B3"/><path d="M19 571 1077 571 1077 828 19 828 19 571ZM529.234 619.009C383.815 619.009 265.93 638.869 265.93 663.367 265.93 687.865 383.815 707.725 529.234 707.725 674.653 707.725 792.538 687.865 792.538 663.367 792.538 638.869 674.653 619.009 529.234 619.009Z" stroke="#D9D9D9" stroke-width="2" stroke-linecap="square" stroke-linejoin="round" stroke-miterlimit="10" stroke-dasharray="6 2" fill="#FFF8B3" fill-rule="evenodd"/><rect x="19" y="175" width="1058" height="203" fill="#FFF8B3"/><rect x="19" y="19" width="1058" height="175" fill="#FFE600"/><rect x="8.50005" y="8.50005" width="1081" height="381" stroke="#000000" stroke-linejoin="round" stroke-miterlimit="10" fill="none"/><text fill="#0000FF" font-family="Arial,Arial_MSFontService,sans-serif" font-weight="700" font-size="32" transform="translate(25.9334 364)">klassisch</text><path d="M264.093 186.5 271.5 195.821 264.093 205.5 264.093 205.5 256.5 195.821 264.093 186.5Z" stroke="#333333" stroke-width="0" stroke-linejoin="round" stroke-miterlimit="10" fill="#575757" fill-rule="evenodd"/><rect x="692" y="176" width="194" height="36" fill="#B7D5F1"/><text font-family="Arial,Arial_MSFontService,sans-serif" font-weight="400" font-size="21" transform="translate(737.768 199)">Einführung</text><rect x="481" y="176" width="196" height="36" fill="#B7D5F1"/><text font-family="Arial,Arial_MSFontService,sans-serif" font-weight="400" font-size="21" transform="translate(519.922 199)">Realisierung</text><rect x="272" y="176" width="192" height="36" fill="#B7D5F1"/><text font-family="Arial,Arial_MSFontService,sans-serif" font-weight="400" font-size="21" transform="translate(328.913 199)">Konzept</text><path d="M684.093 185.5 691.5 195.311 684.093 205.5 684.093 205.5 676.5 195.311 684.093 185.5Z" stroke="#333333" stroke-width="0" stroke-linejoin="round" stroke-miterlimit="10" fill="#575757" fill-rule="evenodd"/><path d="M472.093 185.5 479.5 195.311 472.093 205.5 472.093 205.5 464.5 195.311 472.093 185.5Z" stroke="#333333" stroke-width="0" stroke-linejoin="round" stroke-miterlimit="10" fill="#575757" fill-rule="evenodd"/><text font-family="Arial,Arial_MSFontService,sans-serif" font-weight="400" font-size="19" transform="translate(649.969 101)">Phasen</text><text font-family="Arial,Arial_MSFontService,sans-serif" font-weight="400" font-size="19" transform="translate(713.135 101)">-</text><text font-family="Arial,Arial_MSFontService,sans-serif" font-weight="400" font-size="19" transform="translate(651.049 124)">freigabe</text><path d="M687 129.5 687 175.337 684 175.337 684 129.5ZM694.153 167.297 685.5 177.68 676.848 167.297C676.318 166.661 676.404 165.715 677.04 165.185 677.676 164.654 678.622 164.74 679.153 165.377L686.653 174.377 684.348 174.377 691.848 165.377C692.378 164.74 693.324 164.654 693.961 165.185 694.597 165.715 694.683 166.661 694.153 167.297Z" fill="#2AA82A"/><text font-family="Arial,Arial_MSFontService,sans-serif" font-weight="400" font-size="19" transform="translate(436.976 101)">Phasen</text><text font-family="Arial,Arial_MSFontService,sans-serif" font-weight="400" font-size="19" transform="translate(500.143 101)">-</text><text font-family="Arial,Arial_MSFontService,sans-serif" font-weight="400" font-size="19" transform="translate(438.056 124)">freigabe</text><path d="M474 129.5 474 175.337 471 175.337 471 129.5ZM481.153 167.297 472.5 177.68 463.848 167.297C463.318 166.661 463.404 165.715 464.04 165.185 464.677 164.654 465.622 164.74 466.153 165.377L473.653 174.377 471.348 174.377 478.848 165.377C479.378 164.74 480.324 164.654 480.961 165.185 481.597 165.715 481.683 166.661 481.153 167.297Z" fill="#2AA82A"/><text font-family="Arial,Arial_MSFontService,sans-serif" font-weight="400" font-size="19" transform="translate(742.122 101)">Betriebs</text><text font-family="Arial,Arial_MSFontService,sans-serif" font-weight="400" font-size="19" transform="translate(810.455 101)">-</text><text font-family="Arial,Arial_MSFontService,sans-serif" font-weight="400" font-size="19" transform="translate(738.042 124)">aufnahme</text><path d="M781 129.5 781 154.955 778 154.955 778 129.5ZM788.152 146.915 779.5 157.298 770.848 146.915C770.317 146.279 770.403 145.333 771.04 144.803 771.676 144.272 772.622 144.358 773.152 144.995L780.652 153.995 778.348 153.995 785.848 144.995C786.378 144.358 787.324 144.272 787.96 144.803 788.597 145.333 788.683 146.279 788.152 146.915Z" fill="#2AA82A"/><path d="M780.093 161.5 787.5 171.311 780.093 181.5 780.093 181.5 772.5 171.311 780.093 161.5Z" stroke="#333333" stroke-width="0" stroke-linejoin="round" stroke-miterlimit="10" fill="#575757" fill-rule="evenodd"/><text font-family="Arial,Arial_MSFontService,sans-serif" font-weight="400" font-size="19" transform="translate(828.778 101)">Phasenfreigabe</text><text font-family="Arial,Arial_MSFontService,sans-serif" font-weight="400" font-size="19" transform="translate(851.445 124)">Abschluss</text><path d="M1.5-3.35597e-06 1.5001 44.5855-1.4999 44.5855-1.5 3.35597e-06ZM8.65241 36.5457 0.000105024 46.9285-8.65225 36.5458C-9.1826 35.9093-9.09661 34.9635-8.4602 34.4331-7.82378 33.9028-6.87794 33.9888-6.34759 34.6252L1.15243 43.6252-1.15223 43.6252 6.34775 34.6252C6.87809 33.9888 7.82394 33.9028 8.46035 34.4331 9.09677 34.9635 9.18276 35.9093 8.65241 36.5457Z" fill="#2AA82A" transform="matrix(-1 0 0 1 894.5 129.5)"/><rect x="901" y="176" width="108" height="36" fill="#D9D9D9"/><text font-family="Arial,Arial_MSFontService,sans-serif" font-weight="400" font-size="21" transform="translate(906.438 201)">Abschluss</text><path d="M1016.09 183.5 1023.5 193.311 1016.09 203.5 1016.09 203.5 1008.5 193.311 1016.09 183.5Z" stroke="#333333" stroke-width="0" stroke-linejoin="round" stroke-miterlimit="10" fill="#575757" fill-rule="evenodd"/><text font-family="Arial,Arial_MSFontService,sans-serif" font-weight="400" font-size="19" transform="translate(982.998 101)">Projekt</text><text font-family="Arial,Arial_MSFontService,sans-serif" font-weight="400" font-size="19" transform="translate(1041 101)">-</text><text font-family="Arial,Arial_MSFontService,sans-serif" font-weight="400" font-size="19" transform="translate(973.665 124)">abschluss</text><path d="M1017 142.5 1017 173.223 1014 173.223 1014 142.5ZM1024.15 165.183 1015.5 175.566 1006.85 165.183C1006.32 164.547 1006.4 163.601 1007.04 163.071 1007.68 162.54 1008.62 162.626 1009.15 163.263L1016.65 172.263 1014.35 172.263 1021.85 163.263C1022.38 162.626 1023.32 162.54 1023.96 163.071 1024.6 163.601 1024.68 164.547 1024.15 165.183Z" fill="#2AA82A"/><text font-family="Arial,Arial_MSFontService,sans-serif" font-weight="400" font-size="19" transform="translate(837.283 293)">Abnahme</text><path d="M876.095 275.14 876.006 236.844 879.006 236.836 879.095 275.133ZM868.872 244.9 877.5 234.497 886.177 244.859C886.709 245.495 886.625 246.441 885.99 246.972 885.354 247.504 884.408 247.421 883.877 246.785L876.355 237.803 878.66 237.798 871.181 246.815C870.652 247.453 869.707 247.541 869.069 247.012 868.431 246.483 868.343 245.538 868.872 244.9Z" fill="#2AA82A"/><path d="M877.093 208.5 884.5 218.311 877.093 228.5 877.093 228.5 869.5 218.311 877.093 208.5Z" stroke="#333333" stroke-width="0" stroke-linejoin="round" stroke-miterlimit="10" fill="#575757" fill-rule="evenodd"/><text font-family="Arial,Arial_MSFontService,sans-serif" font-weight="400" font-size="19" transform="translate(617.777 282)">Vorab</text><text font-family="Arial,Arial_MSFontService,sans-serif" font-weight="400" font-size="19" transform="translate(667.443 282)">-</text><text font-family="Arial,Arial_MSFontService,sans-serif" font-weight="400" font-size="19" transform="translate(617.277 305)">nahme</text><path d="M645.095 263.832 645.008 236.845 648.008 236.835 648.095 263.822ZM637.881 244.908 646.5 234.497 655.186 244.852C655.718 245.486 655.635 246.432 655.001 246.965 654.366 247.497 653.42 247.414 652.888 246.78L645.358 237.804 647.663 237.797 640.192 246.821C639.664 247.459 638.718 247.548 638.08 247.02 637.442 246.491 637.353 245.546 637.881 244.908Z" fill="#2AA82A"/><path d="M646.093 208.5 653.5 218.311 646.093 228.5 646.093 228.5 638.5 218.311 646.093 208.5Z" stroke="#333333" stroke-width="0" stroke-linejoin="round" stroke-miterlimit="10" fill="#575757" fill-rule="evenodd"/><text font-family="Arial,Arial_MSFontService,sans-serif" font-weight="400" font-size="19" transform="translate(70.9356 90)">Projekt</text><text font-family="Arial,Arial_MSFontService,sans-serif" font-weight="400" font-size="19" transform="translate(128.936 90)">-</text><text font-family="Arial,Arial_MSFontService,sans-serif" font-weight="400" font-size="19" transform="translate(41.4356 113)">initialisierungs</text><text font-family="Arial,Arial_MSFontService,sans-serif" font-weight="400" font-size="19" transform="translate(158.436 113)">-</text><text font-family="Arial,Arial_MSFontService,sans-serif" font-weight="400" font-size="19" transform="translate(69.4356 135)">freigabe</text><path d="M1.49996-0.0112508 1.75369 33.8167-1.24622 33.8392-1.49996 0.0112508ZM8.84552 25.7235 0.271309 36.1709-8.45865 25.8533C-8.99376 25.2209-8.91487 24.2745-8.28245 23.7393-7.65003 23.2042-6.70357 23.2831-6.16846 23.9156L1.39883 32.859-0.905767 32.8763 6.52652 23.8203C7.05207 23.18 7.99725 23.0869 8.63763 23.6124 9.278 24.138 9.37108 25.0832 8.84552 25.7235Z" fill="#2AA82A" transform="matrix(-1 0 0 1 103.771 140.5)"/><path d="M103.093 183.5 110.5 193.311 103.093 203.5 103.093 203.5 95.5001 193.311 103.093 183.5Z" stroke="#333333" stroke-width="0" stroke-linejoin="round" stroke-miterlimit="10" fill="#575757" fill-rule="evenodd"/><rect x="111" y="177" width="145" height="35" fill="#D9D9D9"/><text font-family="Arial,Arial_MSFontService,sans-serif" font-weight="400" font-size="21" transform="translate(121.26 199)">Initialisierung</text><text font-family="Arial,Arial_MSFontService,sans-serif" font-weight="400" font-size="19" transform="translate(420.494 282)">ISDS</text><text font-family="Arial,Arial_MSFontService,sans-serif" font-weight="400" font-size="19" transform="translate(464.16 282)">-</text><text font-family="Arial,Arial_MSFontService,sans-serif" font-weight="400" font-size="19" transform="translate(411.247 305)">Konzept</text><path d="M444.095 263.832 444.008 236.845 447.008 236.835 447.095 263.822ZM436.881 244.908 445.5 234.497 454.186 244.852C454.718 245.486 454.635 246.432 454.001 246.965 453.366 247.497 452.42 247.414 451.888 246.78L444.358 237.804 446.663 237.797 439.192 246.821C438.664 247.459 437.718 247.548 437.08 247.02 436.442 246.491 436.353 245.546 436.881 244.908Z" fill="#2AA82A"/><path d="M445.093 208.5 452.5 218.311 445.093 228.5 445.093 228.5 437.5 218.311 445.093 208.5Z" stroke="#333333" stroke-width="0" stroke-linejoin="round" stroke-miterlimit="10" fill="#575757" fill-rule="evenodd"/><text font-family="Arial,Arial_MSFontService,sans-serif" font-weight="400" font-size="19" transform="translate(321.583 282)">Lösungs</text><text font-family="Arial,Arial_MSFontService,sans-serif" font-weight="400" font-size="19" transform="translate(391.917 282)">-</text><text font-family="Arial,Arial_MSFontService,sans-serif" font-weight="400" font-size="19" transform="translate(316.417 305)">architektur</text><path d="M361.093 208.5 368.5 218.311 361.093 228.5 361.093 228.5 353.5 218.311 361.093 208.5Z" stroke="#333333" stroke-width="0" stroke-linejoin="round" stroke-miterlimit="10" fill="#575757" fill-rule="evenodd"/><path d="M1.49984-0.0218695 1.87244 25.5317-1.12724 25.5755-1.49984 0.0218695ZM8.9068 17.3886 0.406764 27.8964-8.39603 17.6409C-8.93559 17.0122-8.86341 16.0652-8.23479 15.5257-7.60618 14.9861-6.65918 15.0583-6.11961 15.6869L1.51081 24.5766-0.793607 24.6102 6.57438 15.5018C7.09539 14.8577 8.03988 14.758 8.68396 15.279 9.32804 15.8 9.42781 16.7445 8.9068 17.3886Z" fill="#2AA82A" transform="matrix(1 0 0 -1 360.5 264.393)"/><text font-family="Arial,Arial_MSFontService,sans-serif" font-weight="400" font-size="19" transform="translate(187.532 282)">Weiteres</text><text font-family="Arial,Arial_MSFontService,sans-serif" font-weight="400" font-size="19" transform="translate(183.952 305)">Vorgehen</text><path d="M223.095 263.832 223.008 236.845 226.008 236.835 226.095 263.822ZM215.882 244.908 224.5 234.497 233.186 244.852C233.718 245.486 233.636 246.432 233.001 246.965 232.366 247.497 231.42 247.414 230.888 246.78L223.358 237.804 225.663 237.797 218.192 246.821C217.664 247.459 216.719 247.548 216.08 247.02 215.442 246.492 215.353 245.546 215.882 244.908Z" fill="#2AA82A"/><path d="M224.093 208.5 231.5 218.311 224.093 228.5 224.093 228.5 216.5 218.311 224.093 208.5Z" stroke="#333333" stroke-width="0" stroke-linejoin="round" stroke-miterlimit="10" fill="#575757" fill-rule="evenodd"/><text font-family="Arial,Arial_MSFontService,sans-serif" font-weight="400" font-size="19" transform="translate(700.808 282)">Abnahme</text><text font-family="Arial,Arial_MSFontService,sans-serif" font-weight="400" font-size="19" transform="translate(702.388 305)">Migration</text><path d="M742.093 208.5 749.5 218.311 742.093 228.5 742.093 228.5 734.5 218.311 742.093 208.5Z" stroke="#333333" stroke-width="0" stroke-linejoin="round" stroke-miterlimit="10" fill="#575757" fill-rule="evenodd"/><path d="M1.49984-0.0218808 1.87264 25.5317-1.12704 25.5755-1.49984 0.0218808ZM8.90693 17.3885 0.406974 27.8964-8.39589 17.6409C-8.93547 17.0123-8.86329 16.0653-8.23468 15.5257-7.60606 14.9862-6.65906 15.0583-6.11949 15.687L1.511 24.5766-0.793422 24.6102 6.57449 15.5018C7.0955 14.8577 8.03999 14.7579 8.68408 15.2789 9.32816 15.7999 9.42793 16.7444 8.90693 17.3885Z" fill="#2AA82A" transform="matrix(1 0 0 -1 741.5 264.393)"/><path d="M894.093 185.5 901.5 195.311 894.093 205.5 894.093 205.5 886.5 195.311 894.093 185.5Z" stroke="#333333" stroke-width="0" stroke-linejoin="round" stroke-miterlimit="10" fill="#575757" fill-rule="evenodd"/><text font-family="Arial,Arial_MSFontService,sans-serif" font-weight="700" font-size="27" transform="translate(493.65 359)">Führung</text><path d="M494.07 361.853 521.07 361.853 548.07 361.853 575.07 361.853 602.07 361.853 602.07 364.853 575.07 364.853 548.07 364.853 521.07 364.853 494.07 364.853Z" fill="#2AA82A" fill-rule="evenodd"/><text font-family="Arial,Arial_MSFontService,sans-serif" font-weight="700" font-size="27" transform="translate(488.231 52)">Steuerung</text><path d="M488.231 54.5487 521.231 54.5487 554.231 54.5487 587.231 54.5487 620.231 54.5487 620.231 57.5487 587.231 57.5487 554.231 57.5487 521.231 57.5487 488.231 57.5487Z" fill="#2AA82A" fill-rule="evenodd"/><text font-family="Arial,Arial_MSFontService,sans-serif" font-weight="400" font-size="19" transform="translate(200.308 101)">Durchführungs</text><text font-family="Arial,Arial_MSFontService,sans-serif" font-weight="400" font-size="19" transform="translate(322.308 101)">-</text><text font-family="Arial,Arial_MSFontService,sans-serif" font-weight="400" font-size="19" transform="translate(230.808 124)">freigabe</text><path d="M1.49998-0.00692474 1.76057 56.4397-1.2394 56.4536-1.49998 0.00692474ZM8.87571 48.3671 0.271405 58.7897-8.42877 48.447C-8.96204 47.813-8.88043 46.8668-8.24646 46.3335-7.6125 45.8002-6.66627 45.8819-6.13299 46.5158L1.40848 55.4811-0.896164 55.4917 6.56221 46.4572C7.08961 45.8184 8.03505 45.728 8.67391 46.2554 9.31276 46.7828 9.40312 47.7283 8.87571 48.3671Z" fill="#2AA82A" transform="matrix(-1 0 0 1 264.771 129.5)"/><rect x="8.50005" y="404.5" width="1081" height="435" stroke="#000000" stroke-linejoin="round" stroke-miterlimit="10" fill="none"/><text fill="#FF0000" font-family="Arial,Arial_MSFontService,sans-serif" font-weight="700" font-size="32" transform="translate(25.9334 814)">agil</text><path d="M266 663.5C266 638.923 383.973 619 529.5 619 675.027 619 793 638.923 793 663.5 793 688.077 675.027 708 529.5 708 383.973 708 266 688.077 266 663.5Z" stroke="#D9D9D9" stroke-width="2" stroke-linecap="square" stroke-linejoin="round" stroke-miterlimit="10" stroke-dasharray="6 2" fill="url(#fill0)" fill-rule="evenodd"/><path d="M360 652 686 652 700 666 686 680 360 680Z" stroke="#CA6D68" stroke-width="2" stroke-linejoin="round" stroke-miterlimit="10" fill="#E3B1AF" fill-rule="evenodd"/><text font-family="Arial,Arial_MSFontService,sans-serif" font-weight="400" font-size="19" transform="translate(484.955 673)">Release n</text><rect x="19" y="416" width="1058" height="173" fill="#FFE600"/><text font-family="Arial,Arial_MSFontService,sans-serif" font-weight="700" font-size="27" transform="translate(488.414 447)">Steuerung</text><path d="M488.414 450.299 521.414 450.299 554.414 450.299 587.414 450.299 620.414 450.299 620.414 453.299 587.414 453.299 554.414 453.299 521.414 453.299 488.414 453.299Z" fill="#2AA82A" fill-rule="evenodd"/><text font-family="Arial,Arial_MSFontService,sans-serif" font-weight="400" font-size="19" transform="translate(187.533 670)">Weiteres</text><text font-family="Arial,Arial_MSFontService,sans-serif" font-weight="400" font-size="19" transform="translate(183.953 693)">Vorgehen</text><path d="M1.5-6.86882e-06 1.50009 20.5868-1.49991 20.5868-1.5 6.86882e-06ZM8.65239 12.5471 0.000104906 22.9299-8.65227 12.5471C-9.18262 11.9107-9.09664 10.9649-8.46023 10.4345-7.82382 9.90418-6.87797 9.99016-6.34762 10.6266L1.15242 19.6265-1.15224 19.6266 6.34772 10.6265C6.87806 9.9901 7.82391 9.90411 8.46032 10.4345 9.09674 10.9648 9.18273 11.9106 8.65239 12.5471Z" fill="#2AA82A" transform="matrix(1 0 0 -1 224.5 652.427)"/><path d="M224.093 602.5 231.5 612.311 224.093 622.5 224.093 622.5 216.5 612.311 224.093 602.5Z" stroke="#333333" stroke-width="0" stroke-linejoin="round" stroke-miterlimit="10" fill="#575757" fill-rule="evenodd"/><path d="M547 601 685.452 651.846" stroke="#2AA82A" stroke-width="2" stroke-linejoin="round" stroke-miterlimit="10" stroke-dasharray="8 6" fill="none" fill-rule="evenodd"/><path d="M0 0 70.1626 50.8459" stroke="#2AA82A" stroke-width="2" stroke-linejoin="round" stroke-miterlimit="10" stroke-dasharray="8 6" fill="none" fill-rule="evenodd" transform="matrix(1 0 0 -1 360 651.846)"/><text fill="#2AA82A" font-family="Arial,Arial_MSFontService,sans-serif" font-weight="400" font-size="16" transform="translate(486.123 647)">pro Release</text><text font-family="Arial,Arial_MSFontService,sans-serif" font-weight="700" font-size="27" transform="translate(493.833 811)">Führung</text><path d="M494.253 814.111 521.253 814.111 548.253 814.111 575.253 814.111 602.253 814.111 602.253 817.111 575.253 817.111 548.253 817.111 521.253 817.111 494.253 817.111Z" fill="#2AA82A" fill-rule="evenodd"/><text font-family="Arial,Arial_MSFontService,sans-serif" font-weight="400" font-size="19" transform="translate(70.7221 484)">Projekt</text><text font-family="Arial,Arial_MSFontService,sans-serif" font-weight="400" font-size="19" transform="translate(128.722 484)">-</text><text font-family="Arial,Arial_MSFontService,sans-serif" font-weight="400" font-size="19" transform="translate(41.2221 507)">initialisierungs</text><text font-family="Arial,Arial_MSFontService,sans-serif" font-weight="400" font-size="19" transform="translate(158.222 507)">-</text><text font-family="Arial,Arial_MSFontService,sans-serif" font-weight="400" font-size="19" transform="translate(69.2221 529)">freigabe</text><path d="M1.49996-0.0110706 1.75398 34.4056-1.24594 34.4278-1.49996 0.0110706ZM8.84678 26.3133 0.271309 36.7597-8.45742 26.4411C-8.99244 25.8086-8.91344 24.8621-8.28096 24.3271-7.64847 23.7921-6.70202 23.8711-6.16699 24.5035L1.39923 33.4479-0.905372 33.465 6.528 24.4099C7.05364 23.7695 7.99882 23.6766 8.63913 24.2022 9.27945 24.7278 9.37241 25.673 8.84678 26.3133Z" fill="#2AA82A" transform="matrix(-1 0 0 1 103.771 534.5)"/><path d="M103.093 578.5 110.5 588.311 103.093 598.5 103.093 598.5 95.5001 588.311 103.093 578.5Z" stroke="#333333" stroke-width="0" stroke-linejoin="round" stroke-miterlimit="10" fill="#575757" fill-rule="evenodd"/><rect x="111" y="570" width="145" height="36" fill="#D9D9D9"/><text font-family="Arial,Arial_MSFontService,sans-serif" font-weight="400" font-size="21" transform="translate(121.046 593)">Initialisierung</text><rect x="901" y="570" width="108" height="36" fill="#D9D9D9"/><text font-family="Arial,Arial_MSFontService,sans-serif" font-weight="400" font-size="21" transform="translate(906.469 595)">Abschluss</text><path d="M1017.09 578.5 1024.5 588.311 1017.09 598.5 1017.09 598.5 1009.5 588.311 1017.09 578.5Z" stroke="#333333" stroke-width="0" stroke-linejoin="round" stroke-miterlimit="10" fill="#575757" fill-rule="evenodd"/><text font-family="Arial,Arial_MSFontService,sans-serif" font-weight="400" font-size="19" transform="translate(984.785 496)">Projekt</text><text font-family="Arial,Arial_MSFontService,sans-serif" font-weight="400" font-size="19" transform="translate(1042.78 496)">-</text><text font-family="Arial,Arial_MSFontService,sans-serif" font-weight="400" font-size="19" transform="translate(975.451 519)">abschluss</text><path d="M1.49999-0.00404878 1.6225 45.3809-1.37749 45.389-1.49999 0.00404878ZM8.7531 37.3219 0.128827 47.728-8.5515 37.3686C-9.08356 36.7336-9.00013 35.7875-8.36515 35.2555-7.73016 34.7234-6.78409 34.8069-6.25203 35.4418L1.27224 44.4216-1.03242 44.4278 6.44326 35.4076C6.97189 34.7697 7.9175 34.6812 8.55535 35.2098 9.19319 35.7384 9.28173 36.684 8.7531 37.3219Z" fill="#2AA82A" transform="matrix(-1 0 0 1 1017.63 523.5)"/><text font-family="Arial,Arial_MSFontService,sans-serif" font-weight="400" font-size="19" transform="translate(829.778 495)">Phasenfreigabe</text><text font-family="Arial,Arial_MSFontService,sans-serif" font-weight="400" font-size="19" transform="translate(852.445 518)">Abschluss</text><path d="M1.5-3.22832e-06 1.5001 46.441-1.4999 46.441-1.5 3.22832e-06ZM8.65241 38.4011 0.000105132 48.784-8.65225 38.4012C-9.1826 37.7648-9.09661 36.8189-8.4602 36.2886-7.82378 35.7582-6.87794 35.8442-6.34759 36.4806L1.15243 45.4806-1.15223 45.4806 6.34775 36.4806C6.87809 35.8442 7.82394 35.7582 8.46035 36.2885 9.09677 36.8189 9.18276 37.7647 8.65241 38.4011Z" fill="#2AA82A" transform="matrix(-1 0 0 1 895.5 522.5)"/><path d="M264.093 577.5 271.5 587.311 264.093 597.5 264.093 597.5 256.5 587.311 264.093 577.5Z" stroke="#333333" stroke-width="0" stroke-linejoin="round" stroke-miterlimit="10" fill="#575757" fill-rule="evenodd"/><rect x="272" y="570" width="615" height="36" fill="#EBC9C7"/><text font-family="Arial,Arial_MSFontService,sans-serif" font-weight="400" font-size="21" transform="translate(600.288 593)">Umsetzung</text><path d="M430 578 549 578 560 589 549 600 430 600Z" stroke="#CA6D68" stroke-width="2" stroke-linejoin="round" stroke-miterlimit="10" fill="#E3B1AF" fill-rule="evenodd"/><text font-family="Arial,Arial_MSFontService,sans-serif" font-weight="400" font-size="19" transform="translate(450.293 596)">Release 2</text><path d="M287 578 405 578 416 589 405 600 287 600Z" stroke="#CA6D68" stroke-width="2" stroke-linejoin="round" stroke-miterlimit="10" fill="#E3B1AF" fill-rule="evenodd"/><text font-family="Arial,Arial_MSFontService,sans-serif" font-weight="400" font-size="19" transform="translate(306.517 596)">Release 1</text><path d="M745 577 862.5 577 874 588.5 862.5 600 745 600Z" stroke="#CA6D68" stroke-width="2" stroke-linejoin="round" stroke-miterlimit="10" fill="#E3B1AF" fill-rule="evenodd"/><text font-family="Arial,Arial_MSFontService,sans-serif" font-weight="400" font-size="19" transform="translate(765.415 595)">Release z</text><path d="M423.574 581.5 429.5 589.349 423.574 597.5 423.574 597.5 417.5 589.349 423.574 581.5Z" stroke="#333333" stroke-linejoin="round" stroke-miterlimit="10" fill="#7F7F7F" fill-rule="evenodd"/><path d="M567.08 581.5 573.5 589.349 567.08 597.5 567.08 597.5 560.5 589.349 567.08 581.5Z" stroke="#333333" stroke-linejoin="round" stroke-miterlimit="10" fill="#7F7F7F" fill-rule="evenodd"/><text font-family="Arial,Arial_MSFontService,sans-serif" font-weight="400" font-size="19" transform="translate(355.761 498)">Releasefreigabe</text><text font-family="Arial,Arial_MSFontService,sans-serif" font-weight="400" font-size="16" transform="translate(390.347 518)">(optional)</text><path d="M463.599 675.5 471.5 684.821 463.599 694.5 463.599 694.5 455.5 684.821 463.599 675.5Z" stroke="#333333" stroke-width="0" stroke-linejoin="round" stroke-miterlimit="10" fill="#575757" fill-rule="evenodd"/><text font-family="Arial,Arial_MSFontService,sans-serif" font-weight="400" font-size="16" transform="translate(464.663 737)">Vorab</text><text font-family="Arial,Arial_MSFontService,sans-serif" font-weight="400" font-size="16" transform="translate(507.163 737)">-</text><text font-family="Arial,Arial_MSFontService,sans-serif" font-weight="400" font-size="16" transform="translate(464.25 756)">nahme</text><path d="M0.691226-0.722639 27.4327 24.8564 26.0503 26.3017-0.691226 0.722639ZM26.5623 15.1191 27.8703 26.6588 16.2839 25.8646C15.7329 25.8268 15.3168 25.3495 15.3546 24.7985 15.3924 24.2475 15.8697 23.8315 16.4207 23.8692L26.8099 24.5815 25.7479 25.6917 24.575 15.3443C24.5128 14.7956 24.9072 14.3003 25.456 14.2381 26.0048 14.1759 26.5001 14.5703 26.5623 15.1191Z" fill="#2AA82A" transform="matrix(1 0 0 -1 489 720.657)"/><text font-family="Arial,Arial_MSFontService,sans-serif" font-weight="400" font-size="16" transform="translate(643.047 747)">Abnahme</text><path d="M676.611 730.368 676.026 695.577 678.026 695.543 678.611 730.334ZM669.716 703.044 677 693.998 684.584 702.794C684.944 703.212 684.898 703.843 684.479 704.204 684.061 704.565 683.43 704.518 683.069 704.1L676.269 696.213 677.805 696.187 671.274 704.298C670.927 704.728 670.298 704.796 669.868 704.45 669.438 704.103 669.37 703.474 669.716 703.044Z" fill="#2AA82A"/><path d="M0.828689-0.559709 62.5263 90.7879 60.8689 91.9073-0.828689 0.559709ZM63.7393 81.0871 62.5718 92.6419 51.4169 89.4098C50.8864 89.2561 50.581 88.7015 50.7347 88.171 50.8884 87.6406 51.443 87.3352 51.9735 87.4889L61.9758 90.387 60.7025 91.2469 61.7494 80.886C61.805 80.3365 62.2954 79.9361 62.8449 79.9916 63.3944 80.0471 63.7948 80.5376 63.7393 81.0871Z" fill="#2AA82A" transform="matrix(-1 0 0 1 685.571 542)"/><text font-family="Arial,Arial_MSFontService,sans-serif" font-weight="400" font-size="16" transform="translate(291.143 737)">Lösungs</text><text font-family="Arial,Arial_MSFontService,sans-serif" font-weight="400" font-size="16" transform="translate(351.31 737)">-</text><text font-family="Arial,Arial_MSFontService,sans-serif" font-weight="400" font-size="16" transform="translate(286.643 756)">architektur</text><text font-family="Arial,Arial_MSFontService,sans-serif" font-weight="400" font-size="16" transform="translate(391.303 737)">ISDS</text><text font-family="Arial,Arial_MSFontService,sans-serif" font-weight="400" font-size="16" transform="translate(428.637 737)">-</text><text font-family="Arial,Arial_MSFontService,sans-serif" font-weight="400" font-size="16" transform="translate(383.383 756)">Konzept</text><text font-family="Arial,Arial_MSFontService,sans-serif" font-weight="400" font-size="16" transform="translate(535.498 737)">Abnahme</text><text font-family="Arial,Arial_MSFontService,sans-serif" font-weight="400" font-size="16" transform="translate(536.832 756)">Migration</text><path d="M0.999964-0.00847901 1.21277 25.089-0.787154 25.106-0.999964 0.00847901ZM7.58503 17.6749 0.226054 26.6595-7.28421 17.801C-7.64136 17.3797-7.58939 16.7487-7.16812 16.3915-6.74686 16.0344-6.11583 16.0864-5.75868 16.5076L0.975575 24.4508-0.560812 24.4638 6.03778 16.4076C6.38774 15.9803 7.01779 15.9177 7.44505 16.2676 7.87231 16.6176 7.93498 17.2476 7.58503 17.6749Z" fill="#2AA82A" transform="matrix(1 0 0 -1 570 720.657)"/><path d="M0.467091-0.884209 49.5505 25.0445 48.6163 26.8129-0.467091 0.884209ZM46.0487 15.9171 50.4647 26.6584 39.1031 29.0651C38.5628 29.1795 38.0321 28.8343 37.9176 28.294 37.8032 27.7537 38.1484 27.2229 38.6887 27.1085L48.8763 24.9505 48.1586 26.309 44.1989 16.6776C43.9889 16.1668 44.2327 15.5824 44.7435 15.3724 45.2543 15.1624 45.8387 15.4063 46.0487 15.9171Z" fill="#2AA82A" transform="matrix(1 0 0 -1 413 720.657)"/><path d="M0.296553-0.955016 84.654 25.2398 84.0609 27.1498-0.296553 0.955016ZM79.5335 16.9118 85.8492 26.658 75.1238 31.1126C74.6138 31.3245 74.0286 31.0827 73.8167 30.5727 73.6049 30.0627 73.8466 29.4775 74.3567 29.2656L83.9738 25.2713 83.5182 26.7386 77.8551 17.9994C77.5548 17.5359 77.687 16.9167 78.1505 16.6164 78.614 16.316 79.2332 16.4483 79.5335 16.9118Z" fill="#2AA82A" transform="matrix(1 0 0 -1 324 720.657)"/><path d="M410.093 675.5 417.5 684.821 410.093 694.5 410.093 694.5 402.5 684.821 410.093 675.5Z" stroke="#333333" stroke-width="0" stroke-linejoin="round" stroke-miterlimit="10" fill="#575757" fill-rule="evenodd"/><path d="M517.093 675.5 524.5 684.821 517.093 694.5 517.093 694.5 509.5 684.821 517.093 675.5Z" stroke="#333333" stroke-width="0" stroke-linejoin="round" stroke-miterlimit="10" fill="#575757" fill-rule="evenodd"/><path d="M570.093 675.5 577.5 684.821 570.093 694.5 570.093 694.5 562.5 684.821 570.093 675.5Z" stroke="#333333" stroke-width="0" stroke-linejoin="round" stroke-miterlimit="10" fill="#575757" fill-rule="evenodd"/><path d="M624.093 635.5 631.5 645.311 624.093 655.5 624.093 655.5 616.5 645.311 624.093 635.5Z" stroke="#333333" stroke-width="0" stroke-linejoin="round" stroke-miterlimit="10" fill="#575757" fill-rule="evenodd"/><path d="M677.093 675.5 684.5 684.821 677.093 694.5 677.093 694.5 669.5 684.821 677.093 675.5Z" stroke="#333333" stroke-width="0" stroke-linejoin="round" stroke-miterlimit="10" fill="#575757" fill-rule="evenodd"/><text font-family="Arial,Arial_MSFontService,sans-serif" font-weight="400" font-size="16" transform="translate(653.817 520)">Betriebs</text><text font-family="Arial,Arial_MSFontService,sans-serif" font-weight="400" font-size="16" transform="translate(712.317 520)">-</text><text font-family="Arial,Arial_MSFontService,sans-serif" font-weight="400" font-size="16" transform="translate(650.317 539)">aufnahme</text><text font-family="Arial,Arial_MSFontService,sans-serif" font-weight="400" font-size="19" transform="translate(499.35 498)">Releasefreigabe</text><text font-family="Arial,Arial_MSFontService,sans-serif" font-weight="400" font-size="16" transform="translate(533.937 518)">(optional)</text><path d="M426 522.5 426 574.154 423 574.154 423 522.5ZM433.152 566.114 424.5 576.497 415.848 566.114C415.317 565.478 415.403 564.532 416.04 564.002 416.676 563.471 417.622 563.557 418.152 564.194L425.652 573.194 423.348 573.194 430.848 564.194C431.378 563.557 432.324 563.471 432.96 564.002 433.597 564.532 433.683 565.478 433.152 566.114Z" fill="#2AA82A"/><path d="M569 522.5 569 574.154 566 574.154 566 522.5ZM576.152 566.114 567.5 576.497 558.848 566.114C558.317 565.478 558.403 564.532 559.04 564.002 559.676 563.471 560.622 563.557 561.152 564.194L568.652 573.194 566.348 573.194 573.848 564.194C574.378 563.557 575.324 563.471 575.96 564.002 576.597 564.532 576.683 565.478 576.152 566.114Z" fill="#2AA82A"/><path d="M894.093 577.5 901.5 587.311 894.093 597.5 894.093 597.5 886.5 587.311 894.093 577.5Z" stroke="#333333" stroke-width="0" stroke-linejoin="round" stroke-miterlimit="10" fill="#575757" fill-rule="evenodd"/><text font-family="Arial,Arial_MSFontService,sans-serif" font-weight="400" font-size="19" transform="translate(200.308 496)">Durchführungs</text><text font-family="Arial,Arial_MSFontService,sans-serif" font-weight="400" font-size="19" transform="translate(322.308 496)">-</text><text font-family="Arial,Arial_MSFontService,sans-serif" font-weight="400" font-size="19" transform="translate(230.808 519)">freigabe</text><path d="M1.49998-0.00692474 1.76057 56.4397-1.2394 56.4536-1.49998 0.00692474ZM8.87571 48.3671 0.271405 58.7897-8.42877 48.447C-8.96204 47.813-8.88043 46.8668-8.24646 46.3335-7.6125 45.8002-6.66627 45.8819-6.13299 46.5158L1.40848 55.4811-0.896164 55.4917 6.56221 46.4572C7.08961 45.8184 8.03505 45.728 8.67391 46.2554 9.31276 46.7828 9.40312 47.7283 8.87571 48.3671Z" fill="#2AA82A" transform="matrix(-1 0 0 1 264.771 523.5)"/></g></svg>