<svg width="1129" height="490" xmlns="http://www.w3.org/2000/svg" xmlns:xlink="http://www.w3.org/1999/xlink" overflow="hidden"><g transform="translate(-3 3)"><path d="M29.5009 464.833 33.5009 464.833C33.8691 464.833 34.1676 465.132 34.1676 465.5 34.1676 465.868 33.8691 466.167 33.5009 466.167L29.5009 466.167C29.1327 466.167 28.8342 465.868 28.8342 465.5 28.8342 465.132 29.1327 464.833 29.5009 464.833ZM38.8342 464.833 42.8342 464.833C43.2024 464.833 43.5009 465.132 43.5009 465.5 43.5009 465.868 43.2024 466.167 42.8342 466.167L38.8342 466.167C38.466 466.167 38.1676 465.868 38.1676 465.5 38.1676 465.132 38.466 464.833 38.8342 464.833ZM48.1676 464.833 52.1676 464.833C52.5358 464.833 52.8342 465.132 52.8342 465.5 52.8342 465.868 52.5358 466.167 52.1676 466.167L48.1676 466.167C47.7994 466.167 47.5009 465.868 47.5009 465.5 47.5009 465.132 47.7994 464.833 48.1676 464.833ZM57.5009 464.833 61.5009 464.833C61.8691 464.833 62.1676 465.132 62.1676 465.5 62.1676 465.868 61.8691 466.167 61.5009 466.167L57.5009 466.167C57.1327 466.167 56.8342 465.868 56.8342 465.5 56.8342 465.132 57.1327 464.833 57.5009 464.833ZM66.8342 464.833 70.8342 464.833C71.2024 464.833 71.5009 465.132 71.5009 465.5 71.5009 465.868 71.2024 466.167 70.8342 466.167L66.8342 466.167C66.466 466.167 66.1676 465.868 66.1676 465.5 66.1676 465.132 66.466 464.833 66.8342 464.833ZM76.1676 464.833 80.1676 464.833C80.5358 464.833 80.8342 465.132 80.8342 465.5 80.8342 465.868 80.5358 466.167 80.1676 466.167L76.1676 466.167C75.7994 466.167 75.5009 465.868 75.5009 465.5 75.5009 465.132 75.7994 464.833 76.1676 464.833ZM85.5009 464.833 89.5009 464.833C89.8691 464.833 90.1676 465.132 90.1676 465.5 90.1676 465.868 89.8691 466.167 89.5009 466.167L85.5009 466.167C85.1327 466.167 84.8342 465.868 84.8342 465.5 84.8342 465.132 85.1327 464.833 85.5009 464.833ZM94.8342 464.833 98.8342 464.833C99.2024 464.833 99.5009 465.132 99.5009 465.5 99.5009 465.868 99.2024 466.167 98.8342 466.167L94.8342 466.167C94.466 466.167 94.1676 465.868 94.1676 465.5 94.1676 465.132 94.466 464.833 94.8342 464.833ZM104.168 464.833 108.168 464.833C108.536 464.833 108.834 465.132 108.834 465.5 108.834 465.868 108.536 466.167 108.168 466.167L104.168 466.167C103.799 466.167 103.501 465.868 103.501 465.5 103.501 465.132 103.799 464.833 104.168 464.833ZM113.501 464.833 117.501 464.833C117.869 464.833 118.168 465.132 118.168 465.5 118.168 465.868 117.869 466.167 117.501 466.167L113.501 466.167C113.133 466.167 112.834 465.868 112.834 465.5 112.834 465.132 113.133 464.833 113.501 464.833ZM122.834 464.833 126.834 464.833C127.202 464.833 127.501 465.132 127.501 465.5 127.501 465.868 127.202 466.167 126.834 466.167L122.834 466.167C122.466 466.167 122.168 465.868 122.168 465.5 122.168 465.132 122.466 464.833 122.834 464.833ZM132.168 464.833 136.168 464.833C136.536 464.833 136.834 465.132 136.834 465.5 136.834 465.868 136.536 466.167 136.168 466.167L132.168 466.167C131.799 466.167 131.501 465.868 131.501 465.5 131.501 465.132 131.799 464.833 132.168 464.833ZM141.501 464.833 145.501 464.833C145.869 464.833 146.168 465.132 146.168 465.5 146.168 465.868 145.869 466.167 145.501 466.167L141.501 466.167C141.133 466.167 140.834 465.868 140.834 465.5 140.834 465.132 141.133 464.833 141.501 464.833ZM150.834 464.833 154.834 464.833C155.202 464.833 155.501 465.132 155.501 465.5 155.501 465.868 155.202 466.167 154.834 466.167L150.834 466.167C150.466 466.167 150.168 465.868 150.168 465.5 150.168 465.132 150.466 464.833 150.834 464.833ZM160.168 464.833 164.168 464.833C164.536 464.833 164.834 465.132 164.834 465.5 164.834 465.868 164.536 466.167 164.168 466.167L160.168 466.167C159.799 466.167 159.501 465.868 159.501 465.5 159.501 465.132 159.799 464.833 160.168 464.833ZM169.501 464.833 173.501 464.833C173.869 464.833 174.168 465.132 174.168 465.5 174.168 465.868 173.869 466.167 173.501 466.167L169.501 466.167C169.133 466.167 168.834 465.868 168.834 465.5 168.834 465.132 169.133 464.833 169.501 464.833ZM178.834 464.833 182.834 464.833C183.202 464.833 183.501 465.132 183.501 465.5 183.501 465.868 183.202 466.167 182.834 466.167L178.834 466.167C178.466 466.167 178.168 465.868 178.168 465.5 178.168 465.132 178.466 464.833 178.834 464.833ZM188.168 464.833 192.168 464.833C192.536 464.833 192.834 465.132 192.834 465.5 192.834 465.868 192.536 466.167 192.168 466.167L188.168 466.167C187.799 466.167 187.501 465.868 187.501 465.5 187.501 465.132 187.799 464.833 188.168 464.833ZM197.501 464.833 201.501 464.833C201.869 464.833 202.168 465.132 202.168 465.5 202.168 465.868 201.869 466.167 201.501 466.167L197.501 466.167C197.133 466.167 196.834 465.868 196.834 465.5 196.834 465.132 197.133 464.833 197.501 464.833ZM206.834 464.833 210.834 464.833C211.202 464.833 211.501 465.132 211.501 465.5 211.501 465.868 211.202 466.167 210.834 466.167L206.834 466.167C206.466 466.167 206.168 465.868 206.168 465.5 206.168 465.132 206.466 464.833 206.834 464.833ZM216.168 464.833 220.168 464.833C220.536 464.833 220.834 465.132 220.834 465.5 220.834 465.868 220.536 466.167 220.168 466.167L216.168 466.167C215.799 466.167 215.501 465.868 215.501 465.5 215.501 465.132 215.799 464.833 216.168 464.833ZM225.501 464.833 229.501 464.833C229.869 464.833 230.168 465.132 230.168 465.5 230.168 465.868 229.869 466.167 229.501 466.167L225.501 466.167C225.133 466.167 224.834 465.868 224.834 465.5 224.834 465.132 225.133 464.833 225.501 464.833ZM234.834 464.833 238.834 464.833C239.202 464.833 239.501 465.132 239.501 465.5 239.501 465.868 239.202 466.167 238.834 466.167L234.834 466.167C234.466 466.167 234.168 465.868 234.168 465.5 234.168 465.132 234.466 464.833 234.834 464.833ZM244.168 464.833 248.168 464.833C248.536 464.833 248.834 465.132 248.834 465.5 248.834 465.868 248.536 466.167 248.168 466.167L244.168 466.167C243.799 466.167 243.501 465.868 243.501 465.5 243.501 465.132 243.799 464.833 244.168 464.833ZM253.501 464.833 257.501 464.833C257.869 464.833 258.168 465.132 258.168 465.5 258.168 465.868 257.869 466.167 257.501 466.167L253.501 466.167C253.133 466.167 252.834 465.868 252.834 465.5 252.834 465.132 253.133 464.833 253.501 464.833ZM262.834 464.833 266.834 464.833C267.202 464.833 267.501 465.132 267.501 465.5 267.501 465.868 267.202 466.167 266.834 466.167L262.834 466.167C262.466 466.167 262.168 465.868 262.168 465.5 262.168 465.132 262.466 464.833 262.834 464.833ZM272.168 464.833 276.168 464.833C276.536 464.833 276.834 465.132 276.834 465.5 276.834 465.868 276.536 466.167 276.168 466.167L272.168 466.167C271.799 466.167 271.501 465.868 271.501 465.5 271.501 465.132 271.799 464.833 272.168 464.833ZM281.501 464.833 285.501 464.833C285.869 464.833 286.168 465.132 286.168 465.5 286.168 465.868 285.869 466.167 285.501 466.167L281.501 466.167C281.133 466.167 280.834 465.868 280.834 465.5 280.834 465.132 281.133 464.833 281.501 464.833ZM290.834 464.833 294.834 464.833C295.202 464.833 295.501 465.132 295.501 465.5 295.501 465.868 295.202 466.167 294.834 466.167L290.834 466.167C290.466 466.167 290.168 465.868 290.168 465.5 290.168 465.132 290.466 464.833 290.834 464.833ZM300.168 464.833 304.168 464.833C304.536 464.833 304.834 465.132 304.834 465.5 304.834 465.868 304.536 466.167 304.168 466.167L300.168 466.167C299.799 466.167 299.501 465.868 299.501 465.5 299.501 465.132 299.799 464.833 300.168 464.833ZM309.501 464.833 313.501 464.833C313.869 464.833 314.168 465.132 314.168 465.5 314.168 465.868 313.869 466.167 313.501 466.167L309.501 466.167C309.133 466.167 308.834 465.868 308.834 465.5 308.834 465.132 309.133 464.833 309.501 464.833ZM318.834 464.833 322.834 464.833C323.202 464.833 323.501 465.132 323.501 465.5 323.501 465.868 323.202 466.167 322.834 466.167L318.834 466.167C318.466 466.167 318.168 465.868 318.168 465.5 318.168 465.132 318.466 464.833 318.834 464.833ZM328.168 464.833 332.168 464.833C332.536 464.833 332.834 465.132 332.834 465.5 332.834 465.868 332.536 466.167 332.168 466.167L328.168 466.167C327.799 466.167 327.501 465.868 327.501 465.5 327.501 465.132 327.799 464.833 328.168 464.833ZM337.501 464.833 341.501 464.833C341.869 464.833 342.168 465.132 342.168 465.5 342.168 465.868 341.869 466.167 341.501 466.167L337.501 466.167C337.133 466.167 336.834 465.868 336.834 465.5 336.834 465.132 337.133 464.833 337.501 464.833ZM346.834 464.833 350.834 464.833C351.202 464.833 351.501 465.132 351.501 465.5 351.501 465.868 351.202 466.167 350.834 466.167L346.834 466.167C346.466 466.167 346.168 465.868 346.168 465.5 346.168 465.132 346.466 464.833 346.834 464.833ZM356.168 464.833 360.168 464.833C360.536 464.833 360.834 465.132 360.834 465.5 360.834 465.868 360.536 466.167 360.168 466.167L356.168 466.167C355.799 466.167 355.501 465.868 355.501 465.5 355.501 465.132 355.799 464.833 356.168 464.833ZM365.501 464.833 369.501 464.833C369.869 464.833 370.168 465.132 370.168 465.5 370.168 465.868 369.869 466.167 369.501 466.167L365.501 466.167C365.133 466.167 364.834 465.868 364.834 465.5 364.834 465.132 365.133 464.833 365.501 464.833ZM374.834 464.833 378.834 464.833C379.202 464.833 379.501 465.132 379.501 465.5 379.501 465.868 379.202 466.167 378.834 466.167L374.834 466.167C374.466 466.167 374.168 465.868 374.168 465.5 374.168 465.132 374.466 464.833 374.834 464.833ZM384.168 464.833 388.168 464.833C388.536 464.833 388.834 465.132 388.834 465.5 388.834 465.868 388.536 466.167 388.168 466.167L384.168 466.167C383.799 466.167 383.501 465.868 383.501 465.5 383.501 465.132 383.799 464.833 384.168 464.833ZM393.501 464.833 397.501 464.833C397.869 464.833 398.168 465.132 398.168 465.5 398.168 465.868 397.869 466.167 397.501 466.167L393.501 466.167C393.133 466.167 392.834 465.868 392.834 465.5 392.834 465.132 393.133 464.833 393.501 464.833ZM402.834 464.833 406.834 464.833C407.202 464.833 407.501 465.132 407.501 465.5 407.501 465.868 407.202 466.167 406.834 466.167L402.834 466.167C402.466 466.167 402.168 465.868 402.168 465.5 402.168 465.132 402.466 464.833 402.834 464.833ZM412.168 464.833 416.168 464.833C416.536 464.833 416.834 465.132 416.834 465.5 416.834 465.868 416.536 466.167 416.168 466.167L412.168 466.167C411.799 466.167 411.501 465.868 411.501 465.5 411.501 465.132 411.799 464.833 412.168 464.833ZM421.501 464.833 425.501 464.833C425.869 464.833 426.168 465.132 426.168 465.5 426.168 465.868 425.869 466.167 425.501 466.167L421.501 466.167C421.133 466.167 420.834 465.868 420.834 465.5 420.834 465.132 421.133 464.833 421.501 464.833ZM430.834 464.833 434.834 464.833C435.202 464.833 435.501 465.132 435.501 465.5 435.501 465.868 435.202 466.167 434.834 466.167L430.834 466.167C430.466 466.167 430.168 465.868 430.168 465.5 430.168 465.132 430.466 464.833 430.834 464.833ZM440.168 464.833 444.168 464.833C444.536 464.833 444.834 465.132 444.834 465.5 444.834 465.868 444.536 466.167 444.168 466.167L440.168 466.167C439.799 466.167 439.501 465.868 439.501 465.5 439.501 465.132 439.799 464.833 440.168 464.833ZM449.501 464.833 453.501 464.833C453.869 464.833 454.168 465.132 454.168 465.5 454.168 465.868 453.869 466.167 453.501 466.167L449.501 466.167C449.133 466.167 448.834 465.868 448.834 465.5 448.834 465.132 449.133 464.833 449.501 464.833ZM458.834 464.833 462.834 464.833C463.202 464.833 463.501 465.132 463.501 465.5 463.501 465.868 463.202 466.167 462.834 466.167L458.834 466.167C458.466 466.167 458.168 465.868 458.168 465.5 458.168 465.132 458.466 464.833 458.834 464.833ZM468.168 464.833 472.168 464.833C472.536 464.833 472.834 465.132 472.834 465.5 472.834 465.868 472.536 466.167 472.168 466.167L468.168 466.167C467.799 466.167 467.501 465.868 467.501 465.5 467.501 465.132 467.799 464.833 468.168 464.833ZM477.501 464.833 481.501 464.833C481.869 464.833 482.168 465.132 482.168 465.5 482.168 465.868 481.869 466.167 481.501 466.167L477.501 466.167C477.133 466.167 476.834 465.868 476.834 465.5 476.834 465.132 477.133 464.833 477.501 464.833ZM486.834 464.833 490.834 464.833C491.202 464.833 491.501 465.132 491.501 465.5 491.501 465.868 491.202 466.167 490.834 466.167L486.834 466.167C486.466 466.167 486.168 465.868 486.168 465.5 486.168 465.132 486.466 464.833 486.834 464.833ZM496.168 464.833 500.168 464.833C500.536 464.833 500.834 465.132 500.834 465.5 500.834 465.868 500.536 466.167 500.168 466.167L496.168 466.167C495.799 466.167 495.501 465.868 495.501 465.5 495.501 465.132 495.799 464.833 496.168 464.833ZM505.501 464.833 509.501 464.833C509.869 464.833 510.168 465.132 510.168 465.5 510.168 465.868 509.869 466.167 509.501 466.167L505.501 466.167C505.133 466.167 504.834 465.868 504.834 465.5 504.834 465.132 505.133 464.833 505.501 464.833ZM514.834 464.833 518.834 464.833C519.202 464.833 519.501 465.132 519.501 465.5 519.501 465.868 519.202 466.167 518.834 466.167L514.834 466.167C514.466 466.167 514.168 465.868 514.168 465.5 514.168 465.132 514.466 464.833 514.834 464.833ZM524.168 464.833 528.168 464.833C528.536 464.833 528.834 465.132 528.834 465.5 528.834 465.868 528.536 466.167 528.168 466.167L524.168 466.167C523.799 466.167 523.501 465.868 523.501 465.5 523.501 465.132 523.799 464.833 524.168 464.833ZM533.501 464.833 537.501 464.833C537.869 464.833 538.168 465.132 538.168 465.5 538.168 465.868 537.869 466.167 537.501 466.167L533.501 466.167C533.133 466.167 532.834 465.868 532.834 465.5 532.834 465.132 533.133 464.833 533.501 464.833ZM542.834 464.833 546.834 464.833C547.202 464.833 547.501 465.132 547.501 465.5 547.501 465.868 547.202 466.167 546.834 466.167L542.834 466.167C542.466 466.167 542.168 465.868 542.168 465.5 542.168 465.132 542.466 464.833 542.834 464.833ZM552.168 464.833 556.168 464.833C556.536 464.833 556.834 465.132 556.834 465.5 556.834 465.868 556.536 466.167 556.168 466.167L552.168 466.167C551.799 466.167 551.501 465.868 551.501 465.5 551.501 465.132 551.799 464.833 552.168 464.833ZM561.501 464.833 565.501 464.833C565.869 464.833 566.168 465.132 566.168 465.5 566.168 465.868 565.869 466.167 565.501 466.167L561.501 466.167C561.133 466.167 560.834 465.868 560.834 465.5 560.834 465.132 561.133 464.833 561.501 464.833ZM570.834 464.833 574.834 464.833C575.202 464.833 575.501 465.132 575.501 465.5 575.501 465.868 575.202 466.167 574.834 466.167L570.834 466.167C570.466 466.167 570.168 465.868 570.168 465.5 570.168 465.132 570.466 464.833 570.834 464.833ZM580.168 464.833 584.168 464.833C584.536 464.833 584.834 465.132 584.834 465.5 584.834 465.868 584.536 466.167 584.168 466.167L580.168 466.167C579.799 466.167 579.501 465.868 579.501 465.5 579.501 465.132 579.799 464.833 580.168 464.833ZM589.501 464.833 593.501 464.833C593.869 464.833 594.168 465.132 594.168 465.5 594.168 465.868 593.869 466.167 593.501 466.167L589.501 466.167C589.133 466.167 588.834 465.868 588.834 465.5 588.834 465.132 589.133 464.833 589.501 464.833ZM598.834 464.833 602.834 464.833C603.202 464.833 603.501 465.132 603.501 465.5 603.501 465.868 603.202 466.167 602.834 466.167L598.834 466.167C598.466 466.167 598.168 465.868 598.168 465.5 598.168 465.132 598.466 464.833 598.834 464.833ZM608.168 464.833 612.168 464.833C612.536 464.833 612.834 465.132 612.834 465.5 612.834 465.868 612.536 466.167 612.168 466.167L608.168 466.167C607.799 466.167 607.501 465.868 607.501 465.5 607.501 465.132 607.799 464.833 608.168 464.833ZM617.501 464.833 621.501 464.833C621.869 464.833 622.168 465.132 622.168 465.5 622.168 465.868 621.869 466.167 621.501 466.167L617.501 466.167C617.133 466.167 616.834 465.868 616.834 465.5 616.834 465.132 617.133 464.833 617.501 464.833ZM626.834 464.833 630.834 464.833C631.202 464.833 631.501 465.132 631.501 465.5 631.501 465.868 631.202 466.167 630.834 466.167L626.834 466.167C626.466 466.167 626.168 465.868 626.168 465.5 626.168 465.132 626.466 464.833 626.834 464.833ZM636.168 464.833 640.168 464.833C640.536 464.833 640.834 465.132 640.834 465.5 640.834 465.868 640.536 466.167 640.168 466.167L636.168 466.167C635.799 466.167 635.501 465.868 635.501 465.5 635.501 465.132 635.799 464.833 636.168 464.833ZM645.501 464.833 649.501 464.833C649.869 464.833 650.168 465.132 650.168 465.5 650.168 465.868 649.869 466.167 649.501 466.167L645.501 466.167C645.133 466.167 644.834 465.868 644.834 465.5 644.834 465.132 645.133 464.833 645.501 464.833ZM654.834 464.833 658.834 464.833C659.202 464.833 659.501 465.132 659.501 465.5 659.501 465.868 659.202 466.167 658.834 466.167L654.834 466.167C654.466 466.167 654.168 465.868 654.168 465.5 654.168 465.132 654.466 464.833 654.834 464.833ZM664.168 464.833 668.168 464.833C668.536 464.833 668.834 465.132 668.834 465.5 668.834 465.868 668.536 466.167 668.168 466.167L664.168 466.167C663.799 466.167 663.501 465.868 663.501 465.5 663.501 465.132 663.799 464.833 664.168 464.833ZM673.501 464.833 677.501 464.833C677.869 464.833 678.168 465.132 678.168 465.5 678.168 465.868 677.869 466.167 677.501 466.167L673.501 466.167C673.133 466.167 672.834 465.868 672.834 465.5 672.834 465.132 673.133 464.833 673.501 464.833ZM682.834 464.833 686.834 464.833C687.202 464.833 687.501 465.132 687.501 465.5 687.501 465.868 687.202 466.167 686.834 466.167L682.834 466.167C682.466 466.167 682.168 465.868 682.168 465.5 682.168 465.132 682.466 464.833 682.834 464.833ZM692.168 464.833 696.168 464.833C696.536 464.833 696.834 465.132 696.834 465.5 696.834 465.868 696.536 466.167 696.168 466.167L692.168 466.167C691.799 466.167 691.501 465.868 691.501 465.5 691.501 465.132 691.799 464.833 692.168 464.833ZM701.501 464.833 705.501 464.833C705.869 464.833 706.168 465.132 706.168 465.5 706.168 465.868 705.869 466.167 705.501 466.167L701.501 466.167C701.133 466.167 700.834 465.868 700.834 465.5 700.834 465.132 701.133 464.833 701.501 464.833ZM710.834 464.833 714.834 464.833C715.202 464.833 715.501 465.132 715.501 465.5 715.501 465.868 715.202 466.167 714.834 466.167L710.834 466.167C710.466 466.167 710.168 465.868 710.168 465.5 710.168 465.132 710.466 464.833 710.834 464.833ZM720.168 464.833 724.168 464.833C724.536 464.833 724.834 465.132 724.834 465.5 724.834 465.868 724.536 466.167 724.168 466.167L720.168 466.167C719.799 466.167 719.501 465.868 719.501 465.5 719.501 465.132 719.799 464.833 720.168 464.833ZM729.501 464.833 733.501 464.833C733.869 464.833 734.168 465.132 734.168 465.5 734.168 465.868 733.869 466.167 733.501 466.167L729.501 466.167C729.133 466.167 728.834 465.868 728.834 465.5 728.834 465.132 729.133 464.833 729.501 464.833ZM738.834 464.833 742.834 464.833C743.202 464.833 743.501 465.132 743.501 465.5 743.501 465.868 743.202 466.167 742.834 466.167L738.834 466.167C738.466 466.167 738.168 465.868 738.168 465.5 738.168 465.132 738.466 464.833 738.834 464.833ZM748.168 464.833 752.168 464.833C752.536 464.833 752.834 465.132 752.834 465.5 752.834 465.868 752.536 466.167 752.168 466.167L748.168 466.167C747.799 466.167 747.501 465.868 747.501 465.5 747.501 465.132 747.799 464.833 748.168 464.833ZM757.501 464.833 761.501 464.833C761.869 464.833 762.168 465.132 762.168 465.5 762.168 465.868 761.869 466.167 761.501 466.167L757.501 466.167C757.133 466.167 756.834 465.868 756.834 465.5 756.834 465.132 757.133 464.833 757.501 464.833ZM766.834 464.833 770.834 464.833C771.202 464.833 771.501 465.132 771.501 465.5 771.501 465.868 771.202 466.167 770.834 466.167L766.834 466.167C766.466 466.167 766.168 465.868 766.168 465.5 766.168 465.132 766.466 464.833 766.834 464.833ZM776.168 464.833 780.168 464.833C780.536 464.833 780.834 465.132 780.834 465.5 780.834 465.868 780.536 466.167 780.168 466.167L776.168 466.167C775.799 466.167 775.501 465.868 775.501 465.5 775.501 465.132 775.799 464.833 776.168 464.833ZM785.501 464.833 789.501 464.833C789.869 464.833 790.168 465.132 790.168 465.5 790.168 465.868 789.869 466.167 789.501 466.167L785.501 466.167C785.133 466.167 784.834 465.868 784.834 465.5 784.834 465.132 785.133 464.833 785.501 464.833ZM794.834 464.833 798.834 464.833C799.202 464.833 799.501 465.132 799.501 465.5 799.501 465.868 799.202 466.167 798.834 466.167L794.834 466.167C794.466 466.167 794.168 465.868 794.168 465.5 794.168 465.132 794.466 464.833 794.834 464.833ZM804.168 464.833 808.168 464.833C808.536 464.833 808.834 465.132 808.834 465.5 808.834 465.868 808.536 466.167 808.168 466.167L804.168 466.167C803.799 466.167 803.501 465.868 803.501 465.5 803.501 465.132 803.799 464.833 804.168 464.833ZM813.501 464.833 817.501 464.833C817.869 464.833 818.168 465.132 818.168 465.5 818.168 465.868 817.869 466.167 817.501 466.167L813.501 466.167C813.133 466.167 812.834 465.868 812.834 465.5 812.834 465.132 813.133 464.833 813.501 464.833ZM822.834 464.833 826.834 464.833C827.202 464.833 827.501 465.132 827.501 465.5 827.501 465.868 827.202 466.167 826.834 466.167L822.834 466.167C822.466 466.167 822.168 465.868 822.168 465.5 822.168 465.132 822.466 464.833 822.834 464.833ZM832.168 464.833 836.168 464.833C836.536 464.833 836.834 465.132 836.834 465.5 836.834 465.868 836.536 466.167 836.168 466.167L832.168 466.167C831.799 466.167 831.501 465.868 831.501 465.5 831.501 465.132 831.799 464.833 832.168 464.833ZM841.501 464.833 845.501 464.833C845.869 464.833 846.168 465.132 846.168 465.5 846.168 465.868 845.869 466.167 845.501 466.167L841.501 466.167C841.133 466.167 840.834 465.868 840.834 465.5 840.834 465.132 841.133 464.833 841.501 464.833ZM850.834 464.833 854.834 464.833C855.202 464.833 855.501 465.132 855.501 465.5 855.501 465.868 855.202 466.167 854.834 466.167L850.834 466.167C850.466 466.167 850.168 465.868 850.168 465.5 850.168 465.132 850.466 464.833 850.834 464.833ZM860.168 464.833 864.168 464.833C864.536 464.833 864.834 465.132 864.834 465.5 864.834 465.868 864.536 466.167 864.168 466.167L860.168 466.167C859.799 466.167 859.501 465.868 859.501 465.5 859.501 465.132 859.799 464.833 860.168 464.833ZM869.501 464.833 873.501 464.833C873.869 464.833 874.168 465.132 874.168 465.5 874.168 465.868 873.869 466.167 873.501 466.167L869.501 466.167C869.133 466.167 868.834 465.868 868.834 465.5 868.834 465.132 869.133 464.833 869.501 464.833ZM878.834 464.833 882.834 464.833C883.202 464.833 883.501 465.132 883.501 465.5 883.501 465.868 883.202 466.167 882.834 466.167L878.834 466.167C878.466 466.167 878.168 465.868 878.168 465.5 878.168 465.132 878.466 464.833 878.834 464.833ZM888.168 464.833 892.168 464.833C892.536 464.833 892.834 465.132 892.834 465.5 892.834 465.868 892.536 466.167 892.168 466.167L888.168 466.167C887.799 466.167 887.501 465.868 887.501 465.5 887.501 465.132 887.799 464.833 888.168 464.833ZM897.501 464.833 901.501 464.833C901.869 464.833 902.168 465.132 902.168 465.5 902.168 465.868 901.869 466.167 901.501 466.167L897.501 466.167C897.133 466.167 896.834 465.868 896.834 465.5 896.834 465.132 897.133 464.833 897.501 464.833ZM906.834 464.833 910.834 464.833C911.202 464.833 911.501 465.132 911.501 465.5 911.501 465.868 911.202 466.167 910.834 466.167L906.834 466.167C906.466 466.167 906.168 465.868 906.168 465.5 906.168 465.132 906.466 464.833 906.834 464.833ZM916.168 464.833 920.168 464.833C920.536 464.833 920.834 465.132 920.834 465.5 920.834 465.868 920.536 466.167 920.168 466.167L916.168 466.167C915.799 466.167 915.501 465.868 915.501 465.5 915.501 465.132 915.799 464.833 916.168 464.833ZM925.501 464.833 929.501 464.833C929.869 464.833 930.168 465.132 930.168 465.5 930.168 465.868 929.869 466.167 929.501 466.167L925.501 466.167C925.133 466.167 924.834 465.868 924.834 465.5 924.834 465.132 925.133 464.833 925.501 464.833ZM934.834 464.833 938.834 464.833C939.202 464.833 939.501 465.132 939.501 465.5 939.501 465.868 939.202 466.167 938.834 466.167L934.834 466.167C934.466 466.167 934.168 465.868 934.168 465.5 934.168 465.132 934.466 464.833 934.834 464.833ZM944.168 464.833 948.168 464.833C948.536 464.833 948.834 465.132 948.834 465.5 948.834 465.868 948.536 466.167 948.168 466.167L944.168 466.167C943.799 466.167 943.501 465.868 943.501 465.5 943.501 465.132 943.799 464.833 944.168 464.833ZM953.501 464.833 957.501 464.833C957.869 464.833 958.168 465.132 958.168 465.5 958.168 465.868 957.869 466.167 957.501 466.167L953.501 466.167C953.133 466.167 952.834 465.868 952.834 465.5 952.834 465.132 953.133 464.833 953.501 464.833ZM962.834 464.833 966.834 464.833C967.202 464.833 967.501 465.132 967.501 465.5 967.501 465.868 967.202 466.167 966.834 466.167L962.834 466.167C962.466 466.167 962.168 465.868 962.168 465.5 962.168 465.132 962.466 464.833 962.834 464.833ZM972.168 464.833 976.168 464.833C976.536 464.833 976.834 465.132 976.834 465.5 976.834 465.868 976.536 466.167 976.168 466.167L972.168 466.167C971.799 466.167 971.501 465.868 971.501 465.5 971.501 465.132 971.799 464.833 972.168 464.833ZM981.501 464.833 985.501 464.833C985.869 464.833 986.168 465.132 986.168 465.5 986.168 465.868 985.869 466.167 985.501 466.167L981.501 466.167C981.133 466.167 980.834 465.868 980.834 465.5 980.834 465.132 981.133 464.833 981.501 464.833ZM990.834 464.833 994.834 464.833C995.202 464.833 995.501 465.132 995.501 465.5 995.501 465.868 995.202 466.167 994.834 466.167L990.834 466.167C990.466 466.167 990.168 465.868 990.168 465.5 990.168 465.132 990.466 464.833 990.834 464.833ZM1000.17 464.833 1004.17 464.833C1004.54 464.833 1004.83 465.132 1004.83 465.5 1004.83 465.868 1004.54 466.167 1004.17 466.167L1000.17 466.167C999.799 466.167 999.501 465.868 999.501 465.5 999.501 465.132 999.799 464.833 1000.17 464.833ZM1009.5 464.833 1013.5 464.833C1013.87 464.833 1014.17 465.132 1014.17 465.5 1014.17 465.868 1013.87 466.167 1013.5 466.167L1009.5 466.167C1009.13 466.167 1008.83 465.868 1008.83 465.5 1008.83 465.132 1009.13 464.833 1009.5 464.833ZM1018.83 464.833 1022.83 464.833C1023.2 464.833 1023.5 465.132 1023.5 465.5 1023.5 465.868 1023.2 466.167 1022.83 466.167L1018.83 466.167C1018.47 466.167 1018.17 465.868 1018.17 465.5 1018.17 465.132 1018.47 464.833 1018.83 464.833ZM1028.17 464.833 1032.17 464.833C1032.54 464.833 1032.83 465.132 1032.83 465.5 1032.83 465.868 1032.54 466.167 1032.17 466.167L1028.17 466.167C1027.8 466.167 1027.5 465.868 1027.5 465.5 1027.5 465.132 1027.8 464.833 1028.17 464.833ZM1037.5 464.833 1041.5 464.833C1041.87 464.833 1042.17 465.132 1042.17 465.5 1042.17 465.868 1041.87 466.167 1041.5 466.167L1037.5 466.167C1037.13 466.167 1036.83 465.868 1036.83 465.5 1036.83 465.132 1037.13 464.833 1037.5 464.833ZM1046.83 464.833 1050.83 464.833C1051.2 464.833 1051.5 465.132 1051.5 465.5 1051.5 465.868 1051.2 466.167 1050.83 466.167L1046.83 466.167C1046.47 466.167 1046.17 465.868 1046.17 465.5 1046.17 465.132 1046.47 464.833 1046.83 464.833ZM1056.17 464.833 1060.17 464.833C1060.54 464.833 1060.83 465.132 1060.83 465.5 1060.83 465.868 1060.54 466.167 1060.17 466.167L1056.17 466.167C1055.8 466.167 1055.5 465.868 1055.5 465.5 1055.5 465.132 1055.8 464.833 1056.17 464.833ZM1065.5 464.833 1069.5 464.833C1069.87 464.833 1070.17 465.132 1070.17 465.5 1070.17 465.868 1069.87 466.167 1069.5 466.167L1065.5 466.167C1065.13 466.167 1064.83 465.868 1064.83 465.5 1064.83 465.132 1065.13 464.833 1065.5 464.833ZM1074.83 464.833 1078.83 464.833C1079.2 464.833 1079.5 465.132 1079.5 465.5 1079.5 465.868 1079.2 466.167 1078.83 466.167L1074.83 466.167C1074.47 466.167 1074.17 465.868 1074.17 465.5 1074.17 465.132 1074.47 464.833 1074.83 464.833ZM1084.17 464.833 1088.17 464.833C1088.54 464.833 1088.83 465.132 1088.83 465.5 1088.83 465.868 1088.54 466.167 1088.17 466.167L1084.17 466.167C1083.8 466.167 1083.5 465.868 1083.5 465.5 1083.5 465.132 1083.8 464.833 1084.17 464.833ZM1093.5 464.833 1097.5 464.833C1097.87 464.833 1098.17 465.132 1098.17 465.5 1098.17 465.868 1097.87 466.167 1097.5 466.167L1093.5 466.167C1093.13 466.167 1092.83 465.868 1092.83 465.5 1092.83 465.132 1093.13 464.833 1093.5 464.833ZM1102.83 464.833 1106.51 464.833C1106.87 464.833 1107.17 465.132 1107.17 465.5 1107.17 465.868 1106.87 466.167 1106.51 466.167L1102.83 466.167C1102.47 466.167 1102.17 465.868 1102.17 465.5 1102.17 465.132 1102.47 464.833 1102.83 464.833ZM30.8334 472.167 17.5001 465.5 30.8334 458.833ZM1105.17 458.833 1118.5 465.5 1105.17 472.167Z"/><rect x="512" y="452" width="137" height="23" fill="#FFFFFF"/><text font-family="Arial,Arial_MSFontService,sans-serif" font-weight="400" font-size="19" transform="translate(528.083 471)">Projektdauer</text><path d="M29.5 432.833 33.5 432.833C33.8682 432.833 34.1667 433.132 34.1667 433.5 34.1667 433.868 33.8682 434.167 33.5 434.167L29.5 434.167C29.1318 434.167 28.8334 433.868 28.8334 433.5 28.8334 433.132 29.1318 432.833 29.5 432.833ZM38.8334 432.833 42.8334 432.833C43.2016 432.833 43.5 433.132 43.5 433.5 43.5 433.868 43.2016 434.167 42.8334 434.167L38.8334 434.167C38.4652 434.167 38.1667 433.868 38.1667 433.5 38.1667 433.132 38.4652 432.833 38.8334 432.833ZM48.1667 432.833 52.1667 432.833C52.5349 432.833 52.8334 433.132 52.8334 433.5 52.8334 433.868 52.5349 434.167 52.1667 434.167L48.1667 434.167C47.7985 434.167 47.5 433.868 47.5 433.5 47.5 433.132 47.7985 432.833 48.1667 432.833ZM57.5 432.833 61.5 432.833C61.8682 432.833 62.1667 433.132 62.1667 433.5 62.1667 433.868 61.8682 434.167 61.5 434.167L57.5 434.167C57.1318 434.167 56.8334 433.868 56.8334 433.5 56.8334 433.132 57.1318 432.833 57.5 432.833ZM66.8334 432.833 70.8334 432.833C71.2016 432.833 71.5 433.132 71.5 433.5 71.5 433.868 71.2016 434.167 70.8334 434.167L66.8334 434.167C66.4652 434.167 66.1667 433.868 66.1667 433.5 66.1667 433.132 66.4652 432.833 66.8334 432.833ZM76.1667 432.833 80.1667 432.833C80.5349 432.833 80.8334 433.132 80.8334 433.5 80.8334 433.868 80.5349 434.167 80.1667 434.167L76.1667 434.167C75.7985 434.167 75.5 433.868 75.5 433.5 75.5 433.132 75.7985 432.833 76.1667 432.833ZM85.5 432.833 89.5 432.833C89.8682 432.833 90.1667 433.132 90.1667 433.5 90.1667 433.868 89.8682 434.167 89.5 434.167L85.5 434.167C85.1318 434.167 84.8334 433.868 84.8334 433.5 84.8334 433.132 85.1318 432.833 85.5 432.833ZM94.8334 432.833 98.8334 432.833C99.2016 432.833 99.5 433.132 99.5 433.5 99.5 433.868 99.2016 434.167 98.8334 434.167L94.8334 434.167C94.4652 434.167 94.1667 433.868 94.1667 433.5 94.1667 433.132 94.4652 432.833 94.8334 432.833ZM104.167 432.833 108.167 432.833C108.535 432.833 108.833 433.132 108.833 433.5 108.833 433.868 108.535 434.167 108.167 434.167L104.167 434.167C103.799 434.167 103.5 433.868 103.5 433.5 103.5 433.132 103.799 432.833 104.167 432.833ZM113.5 432.833 117.5 432.833C117.868 432.833 118.167 433.132 118.167 433.5 118.167 433.868 117.868 434.167 117.5 434.167L113.5 434.167C113.132 434.167 112.833 433.868 112.833 433.5 112.833 433.132 113.132 432.833 113.5 432.833ZM122.833 432.833 126.833 432.833C127.202 432.833 127.5 433.132 127.5 433.5 127.5 433.868 127.202 434.167 126.833 434.167L122.833 434.167C122.465 434.167 122.167 433.868 122.167 433.5 122.167 433.132 122.465 432.833 122.833 432.833ZM132.167 432.833 136.167 432.833C136.535 432.833 136.833 433.132 136.833 433.5 136.833 433.868 136.535 434.167 136.167 434.167L132.167 434.167C131.798 434.167 131.5 433.868 131.5 433.5 131.5 433.132 131.798 432.833 132.167 432.833ZM141.5 432.833 145.5 432.833C145.868 432.833 146.167 433.132 146.167 433.5 146.167 433.868 145.868 434.167 145.5 434.167L141.5 434.167C141.132 434.167 140.833 433.868 140.833 433.5 140.833 433.132 141.132 432.833 141.5 432.833ZM150.833 432.833 154.833 432.833C155.202 432.833 155.5 433.132 155.5 433.5 155.5 433.868 155.202 434.167 154.833 434.167L150.833 434.167C150.465 434.167 150.167 433.868 150.167 433.5 150.167 433.132 150.465 432.833 150.833 432.833ZM160.167 432.833 164.167 432.833C164.535 432.833 164.833 433.132 164.833 433.5 164.833 433.868 164.535 434.167 164.167 434.167L160.167 434.167C159.798 434.167 159.5 433.868 159.5 433.5 159.5 433.132 159.798 432.833 160.167 432.833ZM169.5 432.833 173.5 432.833C173.868 432.833 174.167 433.132 174.167 433.5 174.167 433.868 173.868 434.167 173.5 434.167L169.5 434.167C169.132 434.167 168.833 433.868 168.833 433.5 168.833 433.132 169.132 432.833 169.5 432.833ZM178.833 432.833 182.833 432.833C183.202 432.833 183.5 433.132 183.5 433.5 183.5 433.868 183.202 434.167 182.833 434.167L178.833 434.167C178.465 434.167 178.167 433.868 178.167 433.5 178.167 433.132 178.465 432.833 178.833 432.833ZM188.167 432.833 192.167 432.833C192.535 432.833 192.833 433.132 192.833 433.5 192.833 433.868 192.535 434.167 192.167 434.167L188.167 434.167C187.798 434.167 187.5 433.868 187.5 433.5 187.5 433.132 187.798 432.833 188.167 432.833ZM197.5 432.833 200.5 432.833C200.868 432.833 201.167 433.132 201.167 433.5 201.167 433.868 200.868 434.167 200.5 434.167L197.5 434.167C197.132 434.167 196.833 433.868 196.833 433.5 196.833 433.132 197.132 432.833 197.5 432.833ZM30.8334 440.167 17.5001 433.5 30.8334 426.833ZM199.167 426.833 212.5 433.5 199.167 440.167Z"/><rect x="46" y="421" width="137" height="23" fill="#FFFFFF"/><text font-family="Arial,Arial_MSFontService,sans-serif" font-weight="400" font-size="19" transform="translate(57.5623 439)">Projektbeginn</text><path d="M225.499 432.833 229.499 432.833C229.868 432.833 230.166 433.132 230.166 433.5 230.166 433.868 229.868 434.167 229.499 434.167L225.499 434.167C225.131 434.167 224.833 433.868 224.833 433.5 224.833 433.132 225.131 432.833 225.499 432.833ZM234.833 432.833 238.833 432.833C239.201 432.833 239.499 433.132 239.499 433.5 239.499 433.868 239.201 434.167 238.833 434.167L234.833 434.167C234.464 434.167 234.166 433.868 234.166 433.5 234.166 433.132 234.464 432.833 234.833 432.833ZM244.166 432.833 248.166 432.833C248.534 432.833 248.833 433.132 248.833 433.5 248.833 433.868 248.534 434.167 248.166 434.167L244.166 434.167C243.798 434.167 243.499 433.868 243.499 433.5 243.499 433.132 243.798 432.833 244.166 432.833ZM253.499 432.833 257.499 432.833C257.868 432.833 258.166 433.132 258.166 433.5 258.166 433.868 257.868 434.167 257.499 434.167L253.499 434.167C253.131 434.167 252.833 433.868 252.833 433.5 252.833 433.132 253.131 432.833 253.499 432.833ZM262.833 432.833 266.833 432.833C267.201 432.833 267.499 433.132 267.499 433.5 267.499 433.868 267.201 434.167 266.833 434.167L262.833 434.167C262.464 434.167 262.166 433.868 262.166 433.5 262.166 433.132 262.464 432.833 262.833 432.833ZM272.166 432.833 276.166 432.833C276.534 432.833 276.833 433.132 276.833 433.5 276.833 433.868 276.534 434.167 276.166 434.167L272.166 434.167C271.798 434.167 271.499 433.868 271.499 433.5 271.499 433.132 271.798 432.833 272.166 432.833ZM281.499 432.833 285.499 432.833C285.868 432.833 286.166 433.132 286.166 433.5 286.166 433.868 285.868 434.167 285.499 434.167L281.499 434.167C281.131 434.167 280.833 433.868 280.833 433.5 280.833 433.132 281.131 432.833 281.499 432.833ZM290.833 432.833 294.833 432.833C295.201 432.833 295.499 433.132 295.499 433.5 295.499 433.868 295.201 434.167 294.833 434.167L290.833 434.167C290.464 434.167 290.166 433.868 290.166 433.5 290.166 433.132 290.464 432.833 290.833 432.833ZM300.166 432.833 304.166 432.833C304.534 432.833 304.833 433.132 304.833 433.5 304.833 433.868 304.534 434.167 304.166 434.167L300.166 434.167C299.798 434.167 299.499 433.868 299.499 433.5 299.499 433.132 299.798 432.833 300.166 432.833ZM309.499 432.833 313.499 432.833C313.868 432.833 314.166 433.132 314.166 433.5 314.166 433.868 313.868 434.167 313.499 434.167L309.499 434.167C309.131 434.167 308.833 433.868 308.833 433.5 308.833 433.132 309.131 432.833 309.499 432.833ZM318.833 432.833 322.833 432.833C323.201 432.833 323.499 433.132 323.499 433.5 323.499 433.868 323.201 434.167 322.833 434.167L318.833 434.167C318.464 434.167 318.166 433.868 318.166 433.5 318.166 433.132 318.464 432.833 318.833 432.833ZM328.166 432.833 332.166 432.833C332.534 432.833 332.833 433.132 332.833 433.5 332.833 433.868 332.534 434.167 332.166 434.167L328.166 434.167C327.798 434.167 327.499 433.868 327.499 433.5 327.499 433.132 327.798 432.833 328.166 432.833ZM337.499 432.833 341.499 432.833C341.868 432.833 342.166 433.132 342.166 433.5 342.166 433.868 341.868 434.167 341.499 434.167L337.499 434.167C337.131 434.167 336.833 433.868 336.833 433.5 336.833 433.132 337.131 432.833 337.499 432.833ZM346.833 432.833 350.833 432.833C351.201 432.833 351.499 433.132 351.499 433.5 351.499 433.868 351.201 434.167 350.833 434.167L346.833 434.167C346.464 434.167 346.166 433.868 346.166 433.5 346.166 433.132 346.464 432.833 346.833 432.833ZM356.166 432.833 360.166 432.833C360.534 432.833 360.833 433.132 360.833 433.5 360.833 433.868 360.534 434.167 360.166 434.167L356.166 434.167C355.798 434.167 355.499 433.868 355.499 433.5 355.499 433.132 355.798 432.833 356.166 432.833ZM365.499 432.833 369.499 432.833C369.868 432.833 370.166 433.132 370.166 433.5 370.166 433.868 369.868 434.167 369.499 434.167L365.499 434.167C365.131 434.167 364.833 433.868 364.833 433.5 364.833 433.132 365.131 432.833 365.499 432.833ZM374.833 432.833 378.833 432.833C379.201 432.833 379.499 433.132 379.499 433.5 379.499 433.868 379.201 434.167 378.833 434.167L374.833 434.167C374.464 434.167 374.166 433.868 374.166 433.5 374.166 433.132 374.464 432.833 374.833 432.833ZM384.166 432.833 388.166 432.833C388.534 432.833 388.833 433.132 388.833 433.5 388.833 433.868 388.534 434.167 388.166 434.167L384.166 434.167C383.798 434.167 383.499 433.868 383.499 433.5 383.499 433.132 383.798 432.833 384.166 432.833ZM393.499 432.833 397.499 432.833C397.868 432.833 398.166 433.132 398.166 433.5 398.166 433.868 397.868 434.167 397.499 434.167L393.499 434.167C393.131 434.167 392.833 433.868 392.833 433.5 392.833 433.132 393.131 432.833 393.499 432.833ZM402.833 432.833 406.833 432.833C407.201 432.833 407.499 433.132 407.499 433.5 407.499 433.868 407.201 434.167 406.833 434.167L402.833 434.167C402.464 434.167 402.166 433.868 402.166 433.5 402.166 433.132 402.464 432.833 402.833 432.833ZM412.166 432.833 416.166 432.833C416.534 432.833 416.833 433.132 416.833 433.5 416.833 433.868 416.534 434.167 416.166 434.167L412.166 434.167C411.798 434.167 411.499 433.868 411.499 433.5 411.499 433.132 411.798 432.833 412.166 432.833ZM421.499 432.833 425.499 432.833C425.868 432.833 426.166 433.132 426.166 433.5 426.166 433.868 425.868 434.167 425.499 434.167L421.499 434.167C421.131 434.167 420.833 433.868 420.833 433.5 420.833 433.132 421.131 432.833 421.499 432.833ZM430.833 432.833 434.833 432.833C435.201 432.833 435.499 433.132 435.499 433.5 435.499 433.868 435.201 434.167 434.833 434.167L430.833 434.167C430.464 434.167 430.166 433.868 430.166 433.5 430.166 433.132 430.464 432.833 430.833 432.833ZM440.166 432.833 444.166 432.833C444.534 432.833 444.833 433.132 444.833 433.5 444.833 433.868 444.534 434.167 444.166 434.167L440.166 434.167C439.798 434.167 439.499 433.868 439.499 433.5 439.499 433.132 439.798 432.833 440.166 432.833ZM449.499 432.833 453.499 432.833C453.868 432.833 454.166 433.132 454.166 433.5 454.166 433.868 453.868 434.167 453.499 434.167L449.499 434.167C449.131 434.167 448.833 433.868 448.833 433.5 448.833 433.132 449.131 432.833 449.499 432.833ZM458.833 432.833 462.833 432.833C463.201 432.833 463.499 433.132 463.499 433.5 463.499 433.868 463.201 434.167 462.833 434.167L458.833 434.167C458.464 434.167 458.166 433.868 458.166 433.5 458.166 433.132 458.464 432.833 458.833 432.833ZM468.166 432.833 472.166 432.833C472.534 432.833 472.833 433.132 472.833 433.5 472.833 433.868 472.534 434.167 472.166 434.167L468.166 434.167C467.798 434.167 467.499 433.868 467.499 433.5 467.499 433.132 467.798 432.833 468.166 432.833ZM477.499 432.833 481.499 432.833C481.867 432.833 482.166 433.132 482.166 433.5 482.166 433.868 481.867 434.167 481.499 434.167L477.499 434.167C477.131 434.167 476.833 433.868 476.833 433.5 476.833 433.132 477.131 432.833 477.499 432.833ZM486.833 432.833 490.833 432.833C491.201 432.833 491.499 433.132 491.499 433.5 491.499 433.868 491.201 434.167 490.833 434.167L486.833 434.167C486.464 434.167 486.166 433.868 486.166 433.5 486.166 433.132 486.464 432.833 486.833 432.833ZM496.166 432.833 500.166 432.833C500.534 432.833 500.833 433.132 500.833 433.5 500.833 433.868 500.534 434.167 500.166 434.167L496.166 434.167C495.798 434.167 495.499 433.868 495.499 433.5 495.499 433.132 495.798 432.833 496.166 432.833ZM505.499 432.833 509.499 432.833C509.867 432.833 510.166 433.132 510.166 433.5 510.166 433.868 509.867 434.167 509.499 434.167L505.499 434.167C505.131 434.167 504.833 433.868 504.833 433.5 504.833 433.132 505.131 432.833 505.499 432.833ZM514.833 432.833 518.833 432.833C519.201 432.833 519.499 433.132 519.499 433.5 519.499 433.868 519.201 434.167 518.833 434.167L514.833 434.167C514.464 434.167 514.166 433.868 514.166 433.5 514.166 433.132 514.464 432.833 514.833 432.833ZM524.166 432.833 528.166 432.833C528.534 432.833 528.833 433.132 528.833 433.5 528.833 433.868 528.534 434.167 528.166 434.167L524.166 434.167C523.798 434.167 523.499 433.868 523.499 433.5 523.499 433.132 523.798 432.833 524.166 432.833ZM533.499 432.833 537.499 432.833C537.867 432.833 538.166 433.132 538.166 433.5 538.166 433.868 537.867 434.167 537.499 434.167L533.499 434.167C533.131 434.167 532.833 433.868 532.833 433.5 532.833 433.132 533.131 432.833 533.499 432.833ZM542.833 432.833 546.833 432.833C547.201 432.833 547.499 433.132 547.499 433.5 547.499 433.868 547.201 434.167 546.833 434.167L542.833 434.167C542.464 434.167 542.166 433.868 542.166 433.5 542.166 433.132 542.464 432.833 542.833 432.833ZM552.166 432.833 556.166 432.833C556.534 432.833 556.833 433.132 556.833 433.5 556.833 433.868 556.534 434.167 556.166 434.167L552.166 434.167C551.798 434.167 551.499 433.868 551.499 433.5 551.499 433.132 551.798 432.833 552.166 432.833ZM561.499 432.833 565.499 432.833C565.867 432.833 566.166 433.132 566.166 433.5 566.166 433.868 565.867 434.167 565.499 434.167L561.499 434.167C561.131 434.167 560.833 433.868 560.833 433.5 560.833 433.132 561.131 432.833 561.499 432.833ZM570.833 432.833 574.833 432.833C575.201 432.833 575.499 433.132 575.499 433.5 575.499 433.868 575.201 434.167 574.833 434.167L570.833 434.167C570.464 434.167 570.166 433.868 570.166 433.5 570.166 433.132 570.464 432.833 570.833 432.833ZM580.166 432.833 584.166 432.833C584.534 432.833 584.833 433.132 584.833 433.5 584.833 433.868 584.534 434.167 584.166 434.167L580.166 434.167C579.798 434.167 579.499 433.868 579.499 433.5 579.499 433.132 579.798 432.833 580.166 432.833ZM589.499 432.833 593.499 432.833C593.867 432.833 594.166 433.132 594.166 433.5 594.166 433.868 593.867 434.167 593.499 434.167L589.499 434.167C589.131 434.167 588.833 433.868 588.833 433.5 588.833 433.132 589.131 432.833 589.499 432.833ZM598.833 432.833 602.833 432.833C603.201 432.833 603.499 433.132 603.499 433.5 603.499 433.868 603.201 434.167 602.833 434.167L598.833 434.167C598.464 434.167 598.166 433.868 598.166 433.5 598.166 433.132 598.464 432.833 598.833 432.833ZM608.166 432.833 612.166 432.833C612.534 432.833 612.833 433.132 612.833 433.5 612.833 433.868 612.534 434.167 612.166 434.167L608.166 434.167C607.798 434.167 607.499 433.868 607.499 433.5 607.499 433.132 607.798 432.833 608.166 432.833ZM617.499 432.833 621.499 432.833C621.867 432.833 622.166 433.132 622.166 433.5 622.166 433.868 621.867 434.167 621.499 434.167L617.499 434.167C617.131 434.167 616.833 433.868 616.833 433.5 616.833 433.132 617.131 432.833 617.499 432.833ZM626.833 432.833 630.833 432.833C631.201 432.833 631.499 433.132 631.499 433.5 631.499 433.868 631.201 434.167 630.833 434.167L626.833 434.167C626.464 434.167 626.166 433.868 626.166 433.5 626.166 433.132 626.464 432.833 626.833 432.833ZM636.166 432.833 640.166 432.833C640.534 432.833 640.833 433.132 640.833 433.5 640.833 433.868 640.534 434.167 640.166 434.167L636.166 434.167C635.798 434.167 635.499 433.868 635.499 433.5 635.499 433.132 635.798 432.833 636.166 432.833ZM645.499 432.833 649.499 432.833C649.867 432.833 650.166 433.132 650.166 433.5 650.166 433.868 649.867 434.167 649.499 434.167L645.499 434.167C645.131 434.167 644.833 433.868 644.833 433.5 644.833 433.132 645.131 432.833 645.499 432.833ZM654.833 432.833 658.833 432.833C659.201 432.833 659.499 433.132 659.499 433.5 659.499 433.868 659.201 434.167 658.833 434.167L654.833 434.167C654.464 434.167 654.166 433.868 654.166 433.5 654.166 433.132 654.464 432.833 654.833 432.833ZM664.166 432.833 668.166 432.833C668.534 432.833 668.833 433.132 668.833 433.5 668.833 433.868 668.534 434.167 668.166 434.167L664.166 434.167C663.798 434.167 663.499 433.868 663.499 433.5 663.499 433.132 663.798 432.833 664.166 432.833ZM673.499 432.833 677.499 432.833C677.867 432.833 678.166 433.132 678.166 433.5 678.166 433.868 677.867 434.167 677.499 434.167L673.499 434.167C673.131 434.167 672.833 433.868 672.833 433.5 672.833 433.132 673.131 432.833 673.499 432.833ZM682.833 432.833 686.833 432.833C687.201 432.833 687.499 433.132 687.499 433.5 687.499 433.868 687.201 434.167 686.833 434.167L682.833 434.167C682.464 434.167 682.166 433.868 682.166 433.5 682.166 433.132 682.464 432.833 682.833 432.833ZM692.166 432.833 696.166 432.833C696.534 432.833 696.833 433.132 696.833 433.5 696.833 433.868 696.534 434.167 696.166 434.167L692.166 434.167C691.798 434.167 691.499 433.868 691.499 433.5 691.499 433.132 691.798 432.833 692.166 432.833ZM701.499 432.833 705.499 432.833C705.867 432.833 706.166 433.132 706.166 433.5 706.166 433.868 705.867 434.167 705.499 434.167L701.499 434.167C701.131 434.167 700.833 433.868 700.833 433.5 700.833 433.132 701.131 432.833 701.499 432.833ZM710.833 432.833 714.833 432.833C715.201 432.833 715.499 433.132 715.499 433.5 715.499 433.868 715.201 434.167 714.833 434.167L710.833 434.167C710.464 434.167 710.166 433.868 710.166 433.5 710.166 433.132 710.464 432.833 710.833 432.833ZM720.166 432.833 724.166 432.833C724.534 432.833 724.833 433.132 724.833 433.5 724.833 433.868 724.534 434.167 724.166 434.167L720.166 434.167C719.798 434.167 719.499 433.868 719.499 433.5 719.499 433.132 719.798 432.833 720.166 432.833ZM729.499 432.833 733.499 432.833C733.867 432.833 734.166 433.132 734.166 433.5 734.166 433.868 733.867 434.167 733.499 434.167L729.499 434.167C729.131 434.167 728.833 433.868 728.833 433.5 728.833 433.132 729.131 432.833 729.499 432.833ZM738.833 432.833 742.833 432.833C743.201 432.833 743.499 433.132 743.499 433.5 743.499 433.868 743.201 434.167 742.833 434.167L738.833 434.167C738.464 434.167 738.166 433.868 738.166 433.5 738.166 433.132 738.464 432.833 738.833 432.833ZM748.166 432.833 752.166 432.833C752.534 432.833 752.833 433.132 752.833 433.5 752.833 433.868 752.534 434.167 752.166 434.167L748.166 434.167C747.798 434.167 747.499 433.868 747.499 433.5 747.499 433.132 747.798 432.833 748.166 432.833ZM757.499 432.833 761.499 432.833C761.867 432.833 762.166 433.132 762.166 433.5 762.166 433.868 761.867 434.167 761.499 434.167L757.499 434.167C757.131 434.167 756.833 433.868 756.833 433.5 756.833 433.132 757.131 432.833 757.499 432.833ZM766.833 432.833 770.833 432.833C771.201 432.833 771.499 433.132 771.499 433.5 771.499 433.868 771.201 434.167 770.833 434.167L766.833 434.167C766.464 434.167 766.166 433.868 766.166 433.5 766.166 433.132 766.464 432.833 766.833 432.833ZM776.166 432.833 780.166 432.833C780.534 432.833 780.833 433.132 780.833 433.5 780.833 433.868 780.534 434.167 780.166 434.167L776.166 434.167C775.798 434.167 775.499 433.868 775.499 433.5 775.499 433.132 775.798 432.833 776.166 432.833ZM785.499 432.833 789.499 432.833C789.867 432.833 790.166 433.132 790.166 433.5 790.166 433.868 789.867 434.167 789.499 434.167L785.499 434.167C785.131 434.167 784.833 433.868 784.833 433.5 784.833 433.132 785.131 432.833 785.499 432.833ZM794.833 432.833 798.833 432.833C799.201 432.833 799.499 433.132 799.499 433.5 799.499 433.868 799.201 434.167 798.833 434.167L794.833 434.167C794.464 434.167 794.166 433.868 794.166 433.5 794.166 433.132 794.464 432.833 794.833 432.833ZM804.166 432.833 808.166 432.833C808.534 432.833 808.833 433.132 808.833 433.5 808.833 433.868 808.534 434.167 808.166 434.167L804.166 434.167C803.798 434.167 803.499 433.868 803.499 433.5 803.499 433.132 803.798 432.833 804.166 432.833ZM813.499 432.833 817.499 432.833C817.867 432.833 818.166 433.132 818.166 433.5 818.166 433.868 817.867 434.167 817.499 434.167L813.499 434.167C813.131 434.167 812.833 433.868 812.833 433.5 812.833 433.132 813.131 432.833 813.499 432.833ZM822.833 432.833 826.833 432.833C827.201 432.833 827.499 433.132 827.499 433.5 827.499 433.868 827.201 434.167 826.833 434.167L822.833 434.167C822.464 434.167 822.166 433.868 822.166 433.5 822.166 433.132 822.464 432.833 822.833 432.833ZM832.166 432.833 836.166 432.833C836.534 432.833 836.833 433.132 836.833 433.5 836.833 433.868 836.534 434.167 836.166 434.167L832.166 434.167C831.798 434.167 831.499 433.868 831.499 433.5 831.499 433.132 831.798 432.833 832.166 432.833ZM841.499 432.833 845.499 432.833C845.867 432.833 846.166 433.132 846.166 433.5 846.166 433.868 845.867 434.167 845.499 434.167L841.499 434.167C841.131 434.167 840.833 433.868 840.833 433.5 840.833 433.132 841.131 432.833 841.499 432.833ZM850.833 432.833 854.833 432.833C855.201 432.833 855.499 433.132 855.499 433.5 855.499 433.868 855.201 434.167 854.833 434.167L850.833 434.167C850.464 434.167 850.166 433.868 850.166 433.5 850.166 433.132 850.464 432.833 850.833 432.833ZM860.166 432.833 864.166 432.833C864.534 432.833 864.833 433.132 864.833 433.5 864.833 433.868 864.534 434.167 864.166 434.167L860.166 434.167C859.798 434.167 859.499 433.868 859.499 433.5 859.499 433.132 859.798 432.833 860.166 432.833ZM869.499 432.833 873.499 432.833C873.867 432.833 874.166 433.132 874.166 433.5 874.166 433.868 873.867 434.167 873.499 434.167L869.499 434.167C869.131 434.167 868.833 433.868 868.833 433.5 868.833 433.132 869.131 432.833 869.499 432.833ZM878.833 432.833 882.833 432.833C883.201 432.833 883.499 433.132 883.499 433.5 883.499 433.868 883.201 434.167 882.833 434.167L878.833 434.167C878.464 434.167 878.166 433.868 878.166 433.5 878.166 433.132 878.464 432.833 878.833 432.833ZM888.166 432.833 892.166 432.833C892.534 432.833 892.833 433.132 892.833 433.5 892.833 433.868 892.534 434.167 892.166 434.167L888.166 434.167C887.798 434.167 887.499 433.868 887.499 433.5 887.499 433.132 887.798 432.833 888.166 432.833ZM897.499 432.833 901.499 432.833C901.867 432.833 902.166 433.132 902.166 433.5 902.166 433.868 901.867 434.167 901.499 434.167L897.499 434.167C897.131 434.167 896.833 433.868 896.833 433.5 896.833 433.132 897.131 432.833 897.499 432.833ZM906.833 432.833 910.833 432.833C911.201 432.833 911.499 433.132 911.499 433.5 911.499 433.868 911.201 434.167 910.833 434.167L906.833 434.167C906.464 434.167 906.166 433.868 906.166 433.5 906.166 433.132 906.464 432.833 906.833 432.833ZM916.166 432.833 920.166 432.833C920.534 432.833 920.833 433.132 920.833 433.5 920.833 433.868 920.534 434.167 920.166 434.167L916.166 434.167C915.798 434.167 915.499 433.868 915.499 433.5 915.499 433.132 915.798 432.833 916.166 432.833ZM925.499 432.833 929.499 432.833C929.867 432.833 930.166 433.132 930.166 433.5 930.166 433.868 929.867 434.167 929.499 434.167L925.499 434.167C925.131 434.167 924.833 433.868 924.833 433.5 924.833 433.132 925.131 432.833 925.499 432.833ZM934.833 432.833 937.276 432.833C937.644 432.833 937.943 433.132 937.943 433.5 937.943 433.868 937.644 434.167 937.276 434.167L934.833 434.167C934.464 434.167 934.166 433.868 934.166 433.5 934.166 433.132 934.464 432.833 934.833 432.833ZM226.833 440.167 213.5 433.5 226.833 426.833ZM935.942 426.833 949.275 433.5 935.942 440.167Z"/><path d="M961.5 432.833 965.5 432.833C965.868 432.833 966.167 433.132 966.167 433.5 966.167 433.868 965.868 434.167 965.5 434.167L961.5 434.167C961.132 434.167 960.833 433.868 960.833 433.5 960.833 433.132 961.132 432.833 961.5 432.833ZM970.833 432.833 974.833 432.833C975.202 432.833 975.5 433.132 975.5 433.5 975.5 433.868 975.202 434.167 974.833 434.167L970.833 434.167C970.465 434.167 970.167 433.868 970.167 433.5 970.167 433.132 970.465 432.833 970.833 432.833ZM980.167 432.833 984.167 432.833C984.535 432.833 984.833 433.132 984.833 433.5 984.833 433.868 984.535 434.167 984.167 434.167L980.167 434.167C979.799 434.167 979.5 433.868 979.5 433.5 979.5 433.132 979.799 432.833 980.167 432.833ZM989.5 432.833 993.5 432.833C993.868 432.833 994.167 433.132 994.167 433.5 994.167 433.868 993.868 434.167 993.5 434.167L989.5 434.167C989.132 434.167 988.833 433.868 988.833 433.5 988.833 433.132 989.132 432.833 989.5 432.833ZM998.833 432.833 1002.83 432.833C1003.2 432.833 1003.5 433.132 1003.5 433.5 1003.5 433.868 1003.2 434.167 1002.83 434.167L998.833 434.167C998.465 434.167 998.167 433.868 998.167 433.5 998.167 433.132 998.465 432.833 998.833 432.833ZM1008.17 432.833 1012.17 432.833C1012.53 432.833 1012.83 433.132 1012.83 433.5 1012.83 433.868 1012.53 434.167 1012.17 434.167L1008.17 434.167C1007.8 434.167 1007.5 433.868 1007.5 433.5 1007.5 433.132 1007.8 432.833 1008.17 432.833ZM1017.5 432.833 1021.5 432.833C1021.87 432.833 1022.17 433.132 1022.17 433.5 1022.17 433.868 1021.87 434.167 1021.5 434.167L1017.5 434.167C1017.13 434.167 1016.83 433.868 1016.83 433.5 1016.83 433.132 1017.13 432.833 1017.5 432.833ZM1026.83 432.833 1030.83 432.833C1031.2 432.833 1031.5 433.132 1031.5 433.5 1031.5 433.868 1031.2 434.167 1030.83 434.167L1026.83 434.167C1026.47 434.167 1026.17 433.868 1026.17 433.5 1026.17 433.132 1026.47 432.833 1026.83 432.833ZM1036.17 432.833 1040.17 432.833C1040.53 432.833 1040.83 433.132 1040.83 433.5 1040.83 433.868 1040.53 434.167 1040.17 434.167L1036.17 434.167C1035.8 434.167 1035.5 433.868 1035.5 433.5 1035.5 433.132 1035.8 432.833 1036.17 432.833ZM1045.5 432.833 1049.5 432.833C1049.87 432.833 1050.17 433.132 1050.17 433.5 1050.17 433.868 1049.87 434.167 1049.5 434.167L1045.5 434.167C1045.13 434.167 1044.83 433.868 1044.83 433.5 1044.83 433.132 1045.13 432.833 1045.5 432.833ZM1054.83 432.833 1058.83 432.833C1059.2 432.833 1059.5 433.132 1059.5 433.5 1059.5 433.868 1059.2 434.167 1058.83 434.167L1054.83 434.167C1054.47 434.167 1054.17 433.868 1054.17 433.5 1054.17 433.132 1054.47 432.833 1054.83 432.833ZM1064.17 432.833 1068.17 432.833C1068.53 432.833 1068.83 433.132 1068.83 433.5 1068.83 433.868 1068.53 434.167 1068.17 434.167L1064.17 434.167C1063.8 434.167 1063.5 433.868 1063.5 433.5 1063.5 433.132 1063.8 432.833 1064.17 432.833ZM1073.5 432.833 1077.5 432.833C1077.87 432.833 1078.17 433.132 1078.17 433.5 1078.17 433.868 1077.87 434.167 1077.5 434.167L1073.5 434.167C1073.13 434.167 1072.83 433.868 1072.83 433.5 1072.83 433.132 1073.13 432.833 1073.5 432.833ZM1082.83 432.833 1086.83 432.833C1087.2 432.833 1087.5 433.132 1087.5 433.5 1087.5 433.868 1087.2 434.167 1086.83 434.167L1082.83 434.167C1082.47 434.167 1082.17 433.868 1082.17 433.5 1082.17 433.132 1082.47 432.833 1082.83 432.833ZM1092.17 432.833 1096.17 432.833C1096.53 432.833 1096.83 433.132 1096.83 433.5 1096.83 433.868 1096.53 434.167 1096.17 434.167L1092.17 434.167C1091.8 434.167 1091.5 433.868 1091.5 433.5 1091.5 433.132 1091.8 432.833 1092.17 432.833ZM1101.5 432.833 1105.5 432.833C1105.87 432.833 1106.17 433.132 1106.17 433.5 1106.17 433.868 1105.87 434.167 1105.5 434.167L1101.5 434.167C1101.13 434.167 1100.83 433.868 1100.83 433.5 1100.83 433.132 1101.13 432.833 1101.5 432.833ZM962.833 440.167 949.5 433.5 962.833 426.833ZM1105.5 426.833 1118.83 433.5 1105.5 440.167Z"/><rect x="481" y="421" width="198" height="23" fill="#FFFFFF"/><rect x="974" y="421" width="118" height="23" fill="#FFFFFF"/><text font-family="Arial,Arial_MSFontService,sans-serif" font-weight="400" font-size="19" transform="translate(983.271 439)">Projektende</text><text font-family="Arial,Arial_MSFontService,sans-serif" font-weight="400" font-size="19" transform="translate(499.667 439)">Lösungsentstehung</text><path d="M0.979351-1.13617 7.79634 4.73994 5.83764 7.01227-0.979351 1.13617ZM10.0687 6.69864 16.8857 12.5747 14.927 14.8471 8.10997 8.97097ZM19.158 14.5335 25.975 20.4096 24.0163 22.6819 17.1993 16.8058ZM28.2473 22.3683 35.0643 28.2444 33.1056 30.5167 26.2886 24.6406ZM37.3366 30.2031 44.1536 36.0792 42.1949 38.3515 35.3779 32.4754ZM46.426 38.0379 53.2429 43.914 51.2842 46.1863 44.4673 40.3102ZM55.5153 45.8727 62.3323 51.7488 60.3736 54.0211 53.5566 48.145ZM64.6046 53.7075 71.4216 59.5836 69.4629 61.8559 62.6459 55.9798ZM73.6939 61.5423 80.5109 67.4184 78.5522 69.6907 71.7352 63.8146ZM82.7832 69.3771 87.4046 73.3606 85.4459 75.633 80.8245 71.6494ZM85.985 62.6942 88.2002 76.0268 74.6867 75.8015C73.8584 75.7877 73.1981 75.105 73.2119 74.2767 73.2257 73.4484 73.9084 72.7881 74.7367 72.8019L86.4505 72.9972 84.9458 74.7428 83.0255 63.1859C82.8897 62.3687 83.4422 61.5961 84.2594 61.4603 85.0766 61.3246 85.8492 61.877 85.985 62.6942Z" fill="#2AA82A" transform="matrix(1 0 0 -1 349.5 232.525)"/><path d="M349.763 231.023 358.624 232.599 358.098 235.553 349.237 233.977ZM361.577 233.125 370.438 234.701 369.913 237.654 361.052 236.078ZM373.392 235.226 382.253 236.802 381.727 239.756 372.866 238.18ZM385.206 237.328 394.067 238.904 393.542 241.857 384.681 240.281ZM397.021 239.429 405.882 241.005 405.357 243.959 396.496 242.383ZM408.836 241.531 417.696 243.107 417.171 246.06 408.31 244.484ZM420.65 243.632 429.511 245.208 428.986 248.162 420.125 246.586ZM432.465 245.734 435.657 246.301 435.132 249.255 431.939 248.687ZM428.994 237.852 437.701 248.188 425.963 254.889C425.244 255.3 424.328 255.049 423.917 254.33 423.506 253.61 423.757 252.694 424.476 252.283L434.65 246.475 434.247 248.744 426.699 239.784C426.166 239.151 426.247 238.204 426.88 237.671 427.514 237.137 428.46 237.218 428.994 237.852Z" fill="#2AA82A"/><path d="M350.297 231.229 357.922 236.011 356.328 238.553 348.703 233.771ZM360.463 237.605 368.088 242.387 366.494 244.928 358.869 240.147ZM370.629 243.981 378.254 248.763 376.66 251.304 369.035 246.522ZM380.795 250.357 388.42 255.139 386.826 257.68 379.201 252.898ZM390.961 256.732 398.586 261.514 396.992 264.056 389.367 259.274ZM401.127 263.108 408.752 267.89 407.158 270.432 399.533 265.65ZM411.294 269.484 418.918 274.266 417.324 276.807 409.7 272.026ZM421.46 275.86 429.084 280.642 427.49 283.183 419.866 278.401ZM431.626 282.236 439.25 287.018 437.656 289.559 430.032 284.777ZM441.792 288.611 449.416 293.393 447.822 295.935 440.198 291.153ZM451.958 294.987 459.582 299.769 457.988 302.311 450.364 297.529ZM462.124 301.363 469.748 306.145 468.155 308.686 460.53 303.905ZM472.29 307.739 479.915 312.521 478.321 315.062 470.696 310.28ZM482.456 314.115 490.081 318.897 488.487 321.438 480.862 316.656ZM492.622 320.49 500.247 325.272 498.653 327.814 491.028 323.032ZM502.788 326.866 510.413 331.648 508.819 334.19 501.194 329.408ZM512.954 333.242 519.563 337.387 517.969 339.928 511.36 335.784ZM516.552 327.056 520.751 339.902 507.357 341.716C506.537 341.827 505.781 341.251 505.67 340.431 505.559 339.61 506.134 338.854 506.955 338.743L518.564 337.171 517.34 339.123 513.7 327.988C513.443 327.2 513.872 326.353 514.66 326.096 515.447 325.839 516.294 326.268 516.552 327.056Z" fill="#2AA82A"/><path d="M64.2953 276.262 288.344 223.052 299.289 269.136 75.24 322.346Z" stroke="#2AA82A" stroke-width="2" stroke-linecap="square" stroke-linejoin="round" stroke-miterlimit="10" stroke-dasharray="6 2" fill="#FFFFFF" fill-rule="evenodd"/><text font-family="Arial,Arial_MSFontService,sans-serif" font-weight="400" font-size="21" transform="matrix(0.972938 -0.231067 0.231067 0.972938 114.805 283)">Freigabe Start</text><text font-family="Arial,Arial_MSFontService,sans-serif" font-weight="400" font-size="21" transform="matrix(0.972938 -0.231067 0.231067 0.972938 80.9714 314)">Realisierungseinheiten</text><path d="M0 0 54.9108 13.9847" stroke="#2AA82A" stroke-width="3" stroke-linejoin="round" stroke-miterlimit="10" fill="none" fill-rule="evenodd" transform="matrix(1 0 0 -1 294.5 246.485)"/><rect x="957" y="323" width="153" height="35" fill="#D9D9D9"/><text font-family="Arial,Arial_MSFontService,sans-serif" font-weight="400" font-size="21" transform="translate(985.029 348)">Abschluss</text><path d="M1118.09 330.5 1125.5 340.311 1118.09 350.5 1118.09 350.5 1110.5 340.311 1118.09 330.5Z" stroke="#333333" stroke-width="0" stroke-linejoin="round" stroke-miterlimit="10" fill="#575757" fill-rule="evenodd"/><path d="M17.0926 55.5001 24.5001 64.8208 17.0926 74.5001 17.0926 74.5001 9.50005 64.8208 17.0926 55.5001Z" stroke="#333333" stroke-width="0" stroke-linejoin="round" stroke-miterlimit="10" fill="#575757" fill-rule="evenodd"/><rect x="25" y="47" width="180" height="35" fill="#D9D9D9"/><text font-family="Arial,Arial_MSFontService,sans-serif" font-weight="400" font-size="21" transform="translate(52.6657 73)">Initialisierung</text><rect x="221" y="47" width="181" height="35" fill="#B7D5F1"/><text font-family="Arial,Arial_MSFontService,sans-serif" font-weight="400" font-size="21" transform="translate(272.441 73)">Konzept</text><path d="M213.093 55.5001 220.5 64.8208 213.093 74.5001 213.093 74.5001 205.5 64.8208 213.093 55.5001Z" stroke="#333333" stroke-width="0" stroke-linejoin="round" stroke-miterlimit="10" fill="#575757" fill-rule="evenodd"/><path d="M418 15.8487 791.42 15.8487 791.42 8 824 64.3976 791.42 96 791.42 88.1513 418 88.1513 418 15.8487Z" stroke="#B7D5F1" stroke-width="2" stroke-linejoin="round" stroke-miterlimit="10" fill="#EEF5FC" fill-rule="evenodd"/><text font-family="Arial,Arial_MSFontService,sans-serif" font-weight="400" font-size="21" transform="translate(516.591 39)">Realisierungseinheit 1</text><rect x="627" y="48" width="174" height="34" fill="#B7D5F1"/><text font-family="Arial,Arial_MSFontService,sans-serif" font-weight="400" font-size="21" transform="translate(662.375 73)">Einführung</text><rect x="434" y="48" width="176" height="34" fill="#B7D5F1"/><text font-family="Arial,Arial_MSFontService,sans-serif" font-weight="400" font-size="21" transform="translate(462.692 73)">Realisierung</text><path d="M618.093 55.5001 625.5 65.3114 618.093 75.5001 618.093 75.5001 610.5 65.3114 618.093 55.5001Z" stroke="#333333" stroke-width="0" stroke-linejoin="round" stroke-miterlimit="10" fill="#575757" fill-rule="evenodd"/><path d="M411.093 55.5001 418.5 64.8208 411.093 74.5001 411.093 74.5001 403.5 64.8208 411.093 55.5001Z" stroke="#333333" stroke-width="0" stroke-linejoin="round" stroke-miterlimit="10" fill="#575757" fill-rule="evenodd"/><path d="M832.093 55.5001 839.5 64.8208 832.093 74.5001 832.093 74.5001 824.5 64.8208 832.093 55.5001Z" stroke="#333333" stroke-width="0" stroke-linejoin="round" stroke-miterlimit="10" fill="#575757" fill-rule="evenodd"/><path d="M453 107.849 826.42 107.849 826.42 100 859 156.398 826.42 188 826.42 180.151 453 180.151 453 107.849Z" stroke="#B7D5F1" stroke-width="2" stroke-linejoin="round" stroke-miterlimit="10" fill="#EEF5FC" fill-rule="evenodd"/><text font-family="Arial,Arial_MSFontService,sans-serif" font-weight="400" font-size="21" transform="translate(550.963 131)">Realisierungseinheit 2</text><rect x="661" y="139" width="174" height="35" fill="#B7D5F1"/><text font-family="Arial,Arial_MSFontService,sans-serif" font-weight="400" font-size="21" transform="translate(696.746 165)">Einführung</text><rect x="468" y="139" width="176" height="35" fill="#B7D5F1"/><text font-family="Arial,Arial_MSFontService,sans-serif" font-weight="400" font-size="21" transform="translate(497.064 165)">Realisierung</text><path d="M653.093 147.5 660.5 156.821 653.093 166.5 653.093 166.5 645.5 156.821 653.093 147.5Z" stroke="#333333" stroke-width="0" stroke-linejoin="round" stroke-miterlimit="10" fill="#575757" fill-rule="evenodd"/><path d="M445.093 146.5 452.5 156.311 445.093 166.5 445.093 166.5 437.5 156.311 445.093 146.5Z" stroke="#333333" stroke-width="0" stroke-linejoin="round" stroke-miterlimit="10" fill="#575757" fill-rule="evenodd"/><path d="M867.093 146.5 874.5 156.311 867.093 166.5 867.093 166.5 859.5 156.311 867.093 146.5Z" stroke="#333333" stroke-width="0" stroke-linejoin="round" stroke-miterlimit="10" fill="#575757" fill-rule="evenodd"/><path d="M453 199.849 826.42 199.849 826.42 192 859 248.398 826.42 280 826.42 272.151 453 272.151 453 199.849Z" stroke="#B7D5F1" stroke-width="2" stroke-linejoin="round" stroke-miterlimit="10" fill="#EEF5FC" fill-rule="evenodd"/><text font-family="Arial,Arial_MSFontService,sans-serif" font-weight="400" font-size="21" transform="translate(550.963 222)">Realisierungseinheit 3</text><rect x="661" y="231" width="174" height="35" fill="#B7D5F1"/><text font-family="Arial,Arial_MSFontService,sans-serif" font-weight="400" font-size="21" transform="translate(696.746 257)">Einführung</text><rect x="468" y="231" width="176" height="35" fill="#B7D5F1"/><text font-family="Arial,Arial_MSFontService,sans-serif" font-weight="400" font-size="21" transform="translate(497.064 257)">Realisierung</text><path d="M653.093 238.5 660.5 248.311 653.093 258.5 653.093 258.5 645.5 248.311 653.093 238.5Z" stroke="#333333" stroke-width="0" stroke-linejoin="round" stroke-miterlimit="10" fill="#575757" fill-rule="evenodd"/><path d="M445.093 238.5 452.5 248.311 445.093 258.5 445.093 258.5 437.5 248.311 445.093 238.5Z" stroke="#333333" stroke-width="0" stroke-linejoin="round" stroke-miterlimit="10" fill="#575757" fill-rule="evenodd"/><path d="M867.093 238.5 874.5 248.311 867.093 258.5 867.093 258.5 859.5 248.311 867.093 238.5Z" stroke="#333333" stroke-width="0" stroke-linejoin="round" stroke-miterlimit="10" fill="#575757" fill-rule="evenodd"/><path d="M536 290.938 909.42 290.938 909.42 283 942 340.038 909.42 372 909.42 364.062 536 364.062 536 290.938Z" stroke="#B7D5F1" stroke-width="2" stroke-linejoin="round" stroke-miterlimit="10" fill="#EEF5FC" fill-rule="evenodd"/><text font-family="Arial,Arial_MSFontService,sans-serif" font-weight="400" font-size="21" transform="translate(634.013 314)">Realisierungseinheit n</text><rect x="744" y="323" width="174" height="34" fill="#B7D5F1"/><text font-family="Arial,Arial_MSFontService,sans-serif" font-weight="400" font-size="21" transform="translate(779.796 348)">Einführung</text><rect x="551" y="323" width="176" height="34" fill="#B7D5F1"/><text font-family="Arial,Arial_MSFontService,sans-serif" font-weight="400" font-size="21" transform="translate(580.114 348)">Realisierung</text><path d="M736.093 330.5 743.5 340.311 736.093 350.5 736.093 350.5 728.5 340.311 736.093 330.5Z" stroke="#333333" stroke-width="0" stroke-linejoin="round" stroke-miterlimit="10" fill="#575757" fill-rule="evenodd"/><path d="M528.093 330.5 535.5 340.311 528.093 350.5 528.093 350.5 520.5 340.311 528.093 330.5Z" stroke="#333333" stroke-width="0" stroke-linejoin="round" stroke-miterlimit="10" fill="#575757" fill-rule="evenodd"/><path d="M950.093 330.5 957.5 340.311 950.093 350.5 950.093 350.5 942.5 340.311 950.093 330.5Z" stroke="#333333" stroke-width="0" stroke-linejoin="round" stroke-miterlimit="10" fill="#575757" fill-rule="evenodd"/><text font-family="Arial,Arial_MSFontService,sans-serif" font-weight="400" font-size="19" transform="translate(931.005 22)">Phasenfreigabe</text><text font-family="Arial,Arial_MSFontService,sans-serif" font-weight="400" font-size="19" transform="translate(953.672 45)">Abschluss</text><path d="M1.46911-0.30283 47.7269 224.107 44.7887 224.712-1.46911 0.30283ZM53.1087 214.788 46.7307 226.704 36.1604 218.281C35.5125 217.765 35.4057 216.821 35.922 216.173 36.4382 215.526 37.3819 215.419 38.0299 215.935L47.1924 223.236 44.9352 223.701 50.4638 213.372C50.8547 212.642 51.7637 212.367 52.4941 212.757 53.2245 213.148 53.4997 214.057 53.1087 214.788Z" fill="#2AA82A" transform="matrix(-1 0 0 1 996.23 103.5)"/><path d="M1.39772-0.544403 61.98 154.997 59.1845 156.086-1.39772 0.544403ZM65.7265 144.909 61.4324 157.724 49.6017 151.189C48.8766 150.789 48.6134 149.876 49.014 149.151 49.4145 148.426 50.3271 148.163 51.0522 148.563L61.3073 154.227 59.1597 155.064 62.8819 143.956C63.1451 143.17 63.9953 142.747 64.7808 143.01 65.5663 143.273 65.9897 144.123 65.7265 144.909Z" fill="#2AA82A" transform="matrix(1 0 0 -1 349.5 232.221)"/><path d="M1.14516-0.968814 6.95805 5.90217 4.66772 7.8398-1.14516 0.968814ZM8.89567 8.1925 14.7086 15.0635 12.4182 17.0011 6.60535 10.1301ZM16.6462 17.3538 22.4591 24.2248 20.1687 26.1624 14.3559 19.2914ZM24.3967 26.5151 30.2096 33.3861 27.9192 35.3237 22.1064 28.4527ZM32.1472 35.6764 37.9601 42.5474 35.6698 44.485 29.8569 37.6141ZM39.8977 44.8377 45.7106 51.7087 43.4203 53.6463 37.6074 46.7754ZM47.6482 53.999 53.4611 60.87 51.1708 62.8077 45.3579 55.9367ZM55.3987 63.1604 61.2116 70.0313 58.9213 71.969 53.1084 65.098ZM63.1492 72.3217 68.9621 79.1927 66.6718 81.1303 60.8589 74.2593ZM70.8997 81.483 76.7126 88.354 74.4223 90.2916 68.6094 83.4206ZM78.6503 90.6443 84.4631 97.5153 82.1728 99.4529 76.3599 92.5819ZM86.4008 99.8056 92.2137 106.677 89.9233 108.614 84.1104 101.743ZM94.1513 108.967 99.9642 115.838 97.6738 117.776 91.861 110.905ZM101.902 118.128 107.715 124.999 105.424 126.937 99.6115 120.066ZM109.652 127.29 115.465 134.16 113.175 136.098 107.362 129.227ZM117.403 136.451 121.994 141.878 119.704 143.816 115.112 138.388ZM122.262 131.121 122.363 144.636 109.051 142.297C108.235 142.154 107.69 141.376 107.833 140.561 107.976 139.745 108.754 139.199 109.57 139.343L121.109 141.37 119.349 142.858 119.262 131.143C119.256 130.315 119.923 129.638 120.751 129.632 121.579 129.626 122.256 130.292 122.262 131.121Z" fill="#2AA82A" transform="matrix(-1 0 0 1 996.861 103.5)"/><path d="M0.595443-1.37675 8.85596 2.19591 7.66507 4.94941-0.595443 1.37675ZM11.6095 3.38679 19.87 6.95945 18.6791 9.71296 10.4186 6.1403ZM22.6235 8.15034 30.884 11.723 29.6931 14.4765 21.4326 10.9038ZM33.6375 12.9139 41.898 16.4865 40.7071 19.24 32.4466 15.6674ZM44.6515 17.6774 52.912 21.2501 51.7211 24.0036 43.4606 20.4309ZM55.6655 22.441 63.9261 26.0136 62.7352 28.7671 54.4747 25.1945ZM66.6796 27.2045 74.9401 30.7772 73.7492 33.5307 65.4887 29.958ZM77.6936 31.9681 85.9541 35.5407 84.7632 38.2942 76.5027 34.7216ZM88.7076 36.7316 96.9681 40.3043 95.7772 43.0578 87.5167 39.4851ZM99.7216 41.4952 107.982 45.0678 106.791 47.8213 98.5307 44.2487ZM110.736 46.2587 118.996 49.8314 117.805 52.5849 109.545 49.0122ZM116.268 40.859 122.363 52.922 109.399 56.7418C108.604 56.9759 107.77 56.5215 107.536 55.7269 107.302 54.9322 107.756 54.0982 108.551 53.8641L119.789 50.553 118.874 52.6683 113.591 42.2119C113.217 41.4725 113.514 40.5702 114.253 40.1966 114.992 39.823 115.895 40.1196 116.268 40.859Z" fill="#2AA82A" transform="matrix(-1 0 0 1 996.861 103.5)"/><path d="M995.872 104.748 987.136 102.586 987.856 99.6736 996.593 101.836ZM984.223 101.865 975.487 99.7027 976.208 96.7906 984.944 98.9528ZM972.575 98.9819 963.839 96.8196 964.559 93.9075 973.296 96.0698ZM960.926 96.0989 952.19 93.9366 952.911 91.0244 961.647 93.1867ZM949.278 93.2158 940.542 91.0535 941.262 88.1414 949.999 90.3037ZM937.629 90.3327 928.893 88.1704 929.614 85.2583 938.35 87.4206ZM925.981 87.4497 917.245 85.2874 917.965 82.3753 926.702 84.5376ZM914.332 84.5666 905.596 82.4043 906.317 79.4922 915.053 81.6545ZM902.684 81.6836 893.947 79.5213 894.668 76.6091 903.405 78.7714ZM891.035 78.8005 882.299 76.6382 883.02 73.7261 891.756 75.8884ZM879.387 75.9174 870.65 73.7552 871.371 70.843 880.108 73.0053ZM867.738 73.0344 859.002 70.8721 859.723 67.96 868.459 70.1223ZM856.09 70.1513 847.353 67.989 848.074 65.0769 856.811 67.2392ZM844.441 67.2683 841.412 66.5186 842.133 63.6065 845.162 64.3562ZM847.497 75.3927 839.497 64.4993 851.655 58.5949C852.4 58.233 853.297 58.5437 853.659 59.2889 854.021 60.0341 853.71 60.9316 852.965 61.2935L842.427 66.4115 842.981 64.1744 849.915 73.617C850.405 74.2847 850.262 75.2235 849.594 75.7139 848.926 76.2042 847.987 76.0605 847.497 75.3927Z" fill="#2AA82A"/><path d="M423.5 400.833 427.5 400.833C427.868 400.833 428.167 401.132 428.167 401.5 428.167 401.868 427.868 402.167 427.5 402.167L423.5 402.167C423.132 402.167 422.833 401.868 422.833 401.5 422.833 401.132 423.132 400.833 423.5 400.833ZM432.833 400.833 436.833 400.833C437.202 400.833 437.5 401.132 437.5 401.5 437.5 401.868 437.202 402.167 436.833 402.167L432.833 402.167C432.465 402.167 432.167 401.868 432.167 401.5 432.167 401.132 432.465 400.833 432.833 400.833ZM442.167 400.833 446.167 400.833C446.535 400.833 446.833 401.132 446.833 401.5 446.833 401.868 446.535 402.167 446.167 402.167L442.167 402.167C441.799 402.167 441.5 401.868 441.5 401.5 441.5 401.132 441.799 400.833 442.167 400.833ZM451.5 400.833 455.5 400.833C455.868 400.833 456.167 401.132 456.167 401.5 456.167 401.868 455.868 402.167 455.5 402.167L451.5 402.167C451.132 402.167 450.833 401.868 450.833 401.5 450.833 401.132 451.132 400.833 451.5 400.833ZM460.833 400.833 464.833 400.833C465.202 400.833 465.5 401.132 465.5 401.5 465.5 401.868 465.202 402.167 464.833 402.167L460.833 402.167C460.465 402.167 460.167 401.868 460.167 401.5 460.167 401.132 460.465 400.833 460.833 400.833ZM470.167 400.833 474.167 400.833C474.535 400.833 474.833 401.132 474.833 401.5 474.833 401.868 474.535 402.167 474.167 402.167L470.167 402.167C469.799 402.167 469.5 401.868 469.5 401.5 469.5 401.132 469.799 400.833 470.167 400.833ZM479.5 400.833 483.5 400.833C483.868 400.833 484.167 401.132 484.167 401.5 484.167 401.868 483.868 402.167 483.5 402.167L479.5 402.167C479.132 402.167 478.833 401.868 478.833 401.5 478.833 401.132 479.132 400.833 479.5 400.833ZM488.833 400.833 492.833 400.833C493.202 400.833 493.5 401.132 493.5 401.5 493.5 401.868 493.202 402.167 492.833 402.167L488.833 402.167C488.465 402.167 488.167 401.868 488.167 401.5 488.167 401.132 488.465 400.833 488.833 400.833ZM498.167 400.833 502.167 400.833C502.535 400.833 502.833 401.132 502.833 401.5 502.833 401.868 502.535 402.167 502.167 402.167L498.167 402.167C497.799 402.167 497.5 401.868 497.5 401.5 497.5 401.132 497.799 400.833 498.167 400.833ZM507.5 400.833 511.5 400.833C511.868 400.833 512.167 401.132 512.167 401.5 512.167 401.868 511.868 402.167 511.5 402.167L507.5 402.167C507.132 402.167 506.833 401.868 506.833 401.5 506.833 401.132 507.132 400.833 507.5 400.833ZM516.833 400.833 520.833 400.833C521.202 400.833 521.5 401.132 521.5 401.5 521.5 401.868 521.202 402.167 520.833 402.167L516.833 402.167C516.465 402.167 516.167 401.868 516.167 401.5 516.167 401.132 516.465 400.833 516.833 400.833ZM526.167 400.833 530.167 400.833C530.535 400.833 530.833 401.132 530.833 401.5 530.833 401.868 530.535 402.167 530.167 402.167L526.167 402.167C525.799 402.167 525.5 401.868 525.5 401.5 525.5 401.132 525.799 400.833 526.167 400.833ZM535.5 400.833 539.5 400.833C539.868 400.833 540.167 401.132 540.167 401.5 540.167 401.868 539.868 402.167 539.5 402.167L535.5 402.167C535.132 402.167 534.833 401.868 534.833 401.5 534.833 401.132 535.132 400.833 535.5 400.833ZM544.833 400.833 548.833 400.833C549.202 400.833 549.5 401.132 549.5 401.5 549.5 401.868 549.202 402.167 548.833 402.167L544.833 402.167C544.465 402.167 544.167 401.868 544.167 401.5 544.167 401.132 544.465 400.833 544.833 400.833ZM554.167 400.833 558.167 400.833C558.535 400.833 558.833 401.132 558.833 401.5 558.833 401.868 558.535 402.167 558.167 402.167L554.167 402.167C553.799 402.167 553.5 401.868 553.5 401.5 553.5 401.132 553.799 400.833 554.167 400.833ZM563.5 400.833 567.5 400.833C567.868 400.833 568.167 401.132 568.167 401.5 568.167 401.868 567.868 402.167 567.5 402.167L563.5 402.167C563.132 402.167 562.833 401.868 562.833 401.5 562.833 401.132 563.132 400.833 563.5 400.833ZM572.833 400.833 576.833 400.833C577.202 400.833 577.5 401.132 577.5 401.5 577.5 401.868 577.202 402.167 576.833 402.167L572.833 402.167C572.465 402.167 572.167 401.868 572.167 401.5 572.167 401.132 572.465 400.833 572.833 400.833ZM582.167 400.833 586.167 400.833C586.535 400.833 586.833 401.132 586.833 401.5 586.833 401.868 586.535 402.167 586.167 402.167L582.167 402.167C581.799 402.167 581.5 401.868 581.5 401.5 581.5 401.132 581.799 400.833 582.167 400.833ZM591.5 400.833 595.5 400.833C595.868 400.833 596.167 401.132 596.167 401.5 596.167 401.868 595.868 402.167 595.5 402.167L591.5 402.167C591.132 402.167 590.833 401.868 590.833 401.5 590.833 401.132 591.132 400.833 591.5 400.833ZM600.833 400.833 604.833 400.833C605.202 400.833 605.5 401.132 605.5 401.5 605.5 401.868 605.202 402.167 604.833 402.167L600.833 402.167C600.465 402.167 600.167 401.868 600.167 401.5 600.167 401.132 600.465 400.833 600.833 400.833ZM610.167 400.833 614.167 400.833C614.535 400.833 614.833 401.132 614.833 401.5 614.833 401.868 614.535 402.167 614.167 402.167L610.167 402.167C609.799 402.167 609.5 401.868 609.5 401.5 609.5 401.132 609.799 400.833 610.167 400.833ZM619.5 400.833 623.5 400.833C623.868 400.833 624.167 401.132 624.167 401.5 624.167 401.868 623.868 402.167 623.5 402.167L619.5 402.167C619.132 402.167 618.833 401.868 618.833 401.5 618.833 401.132 619.132 400.833 619.5 400.833ZM628.833 400.833 632.833 400.833C633.202 400.833 633.5 401.132 633.5 401.5 633.5 401.868 633.202 402.167 632.833 402.167L628.833 402.167C628.465 402.167 628.167 401.868 628.167 401.5 628.167 401.132 628.465 400.833 628.833 400.833ZM638.167 400.833 642.167 400.833C642.535 400.833 642.833 401.132 642.833 401.5 642.833 401.868 642.535 402.167 642.167 402.167L638.167 402.167C637.799 402.167 637.5 401.868 637.5 401.5 637.5 401.132 637.799 400.833 638.167 400.833ZM647.5 400.833 651.5 400.833C651.868 400.833 652.167 401.132 652.167 401.5 652.167 401.868 651.868 402.167 651.5 402.167L647.5 402.167C647.132 402.167 646.833 401.868 646.833 401.5 646.833 401.132 647.132 400.833 647.5 400.833ZM656.833 400.833 660.833 400.833C661.202 400.833 661.5 401.132 661.5 401.5 661.5 401.868 661.202 402.167 660.833 402.167L656.833 402.167C656.465 402.167 656.167 401.868 656.167 401.5 656.167 401.132 656.465 400.833 656.833 400.833ZM666.167 400.833 670.167 400.833C670.535 400.833 670.833 401.132 670.833 401.5 670.833 401.868 670.535 402.167 670.167 402.167L666.167 402.167C665.799 402.167 665.5 401.868 665.5 401.5 665.5 401.132 665.799 400.833 666.167 400.833ZM675.5 400.833 679.5 400.833C679.868 400.833 680.167 401.132 680.167 401.5 680.167 401.868 679.868 402.167 679.5 402.167L675.5 402.167C675.132 402.167 674.833 401.868 674.833 401.5 674.833 401.132 675.132 400.833 675.5 400.833ZM684.833 400.833 688.833 400.833C689.202 400.833 689.5 401.132 689.5 401.5 689.5 401.868 689.202 402.167 688.833 402.167L684.833 402.167C684.465 402.167 684.167 401.868 684.167 401.5 684.167 401.132 684.465 400.833 684.833 400.833ZM694.167 400.833 698.167 400.833C698.535 400.833 698.833 401.132 698.833 401.5 698.833 401.868 698.535 402.167 698.167 402.167L694.167 402.167C693.799 402.167 693.5 401.868 693.5 401.5 693.5 401.132 693.799 400.833 694.167 400.833ZM703.5 400.833 707.5 400.833C707.868 400.833 708.167 401.132 708.167 401.5 708.167 401.868 707.868 402.167 707.5 402.167L703.5 402.167C703.132 402.167 702.833 401.868 702.833 401.5 702.833 401.132 703.132 400.833 703.5 400.833ZM712.833 400.833 716.833 400.833C717.202 400.833 717.5 401.132 717.5 401.5 717.5 401.868 717.202 402.167 716.833 402.167L712.833 402.167C712.465 402.167 712.167 401.868 712.167 401.5 712.167 401.132 712.465 400.833 712.833 400.833ZM722.167 400.833 726.167 400.833C726.535 400.833 726.833 401.132 726.833 401.5 726.833 401.868 726.535 402.167 726.167 402.167L722.167 402.167C721.799 402.167 721.5 401.868 721.5 401.5 721.5 401.132 721.799 400.833 722.167 400.833ZM731.5 400.833 735.5 400.833C735.868 400.833 736.167 401.132 736.167 401.5 736.167 401.868 735.868 402.167 735.5 402.167L731.5 402.167C731.132 402.167 730.833 401.868 730.833 401.5 730.833 401.132 731.132 400.833 731.5 400.833ZM740.833 400.833 744.833 400.833C745.202 400.833 745.5 401.132 745.5 401.5 745.5 401.868 745.202 402.167 744.833 402.167L740.833 402.167C740.465 402.167 740.167 401.868 740.167 401.5 740.167 401.132 740.465 400.833 740.833 400.833ZM750.167 400.833 754.167 400.833C754.535 400.833 754.833 401.132 754.833 401.5 754.833 401.868 754.535 402.167 754.167 402.167L750.167 402.167C749.799 402.167 749.5 401.868 749.5 401.5 749.5 401.132 749.799 400.833 750.167 400.833ZM759.5 400.833 763.5 400.833C763.868 400.833 764.167 401.132 764.167 401.5 764.167 401.868 763.868 402.167 763.5 402.167L759.5 402.167C759.132 402.167 758.833 401.868 758.833 401.5 758.833 401.132 759.132 400.833 759.5 400.833ZM768.833 400.833 772.833 400.833C773.202 400.833 773.5 401.132 773.5 401.5 773.5 401.868 773.202 402.167 772.833 402.167L768.833 402.167C768.465 402.167 768.167 401.868 768.167 401.5 768.167 401.132 768.465 400.833 768.833 400.833ZM778.167 400.833 782.167 400.833C782.535 400.833 782.833 401.132 782.833 401.5 782.833 401.868 782.535 402.167 782.167 402.167L778.167 402.167C777.799 402.167 777.5 401.868 777.5 401.5 777.5 401.132 777.799 400.833 778.167 400.833ZM787.5 400.833 791.5 400.833C791.868 400.833 792.167 401.132 792.167 401.5 792.167 401.868 791.868 402.167 791.5 402.167L787.5 402.167C787.132 402.167 786.833 401.868 786.833 401.5 786.833 401.132 787.132 400.833 787.5 400.833ZM796.833 400.833 800.833 400.833C801.202 400.833 801.5 401.132 801.5 401.5 801.5 401.868 801.202 402.167 800.833 402.167L796.833 402.167C796.465 402.167 796.167 401.868 796.167 401.5 796.167 401.132 796.465 400.833 796.833 400.833ZM806.167 400.833 810.167 400.833C810.535 400.833 810.833 401.132 810.833 401.5 810.833 401.868 810.535 402.167 810.167 402.167L806.167 402.167C805.799 402.167 805.5 401.868 805.5 401.5 805.5 401.132 805.799 400.833 806.167 400.833ZM815.5 400.833 819.5 400.833C819.868 400.833 820.167 401.132 820.167 401.5 820.167 401.868 819.868 402.167 819.5 402.167L815.5 402.167C815.132 402.167 814.833 401.868 814.833 401.5 814.833 401.132 815.132 400.833 815.5 400.833ZM824.833 400.833 828.833 400.833C829.202 400.833 829.5 401.132 829.5 401.5 829.5 401.868 829.202 402.167 828.833 402.167L824.833 402.167C824.465 402.167 824.167 401.868 824.167 401.5 824.167 401.132 824.465 400.833 824.833 400.833ZM834.167 400.833 838.167 400.833C838.535 400.833 838.833 401.132 838.833 401.5 838.833 401.868 838.535 402.167 838.167 402.167L834.167 402.167C833.799 402.167 833.5 401.868 833.5 401.5 833.5 401.132 833.799 400.833 834.167 400.833ZM843.5 400.833 847.5 400.833C847.868 400.833 848.167 401.132 848.167 401.5 848.167 401.868 847.868 402.167 847.5 402.167L843.5 402.167C843.132 402.167 842.833 401.868 842.833 401.5 842.833 401.132 843.132 400.833 843.5 400.833ZM852.833 400.833 856.833 400.833C857.202 400.833 857.5 401.132 857.5 401.5 857.5 401.868 857.202 402.167 856.833 402.167L852.833 402.167C852.465 402.167 852.167 401.868 852.167 401.5 852.167 401.132 852.465 400.833 852.833 400.833ZM862.167 400.833 866.167 400.833C866.535 400.833 866.833 401.132 866.833 401.5 866.833 401.868 866.535 402.167 866.167 402.167L862.167 402.167C861.799 402.167 861.5 401.868 861.5 401.5 861.5 401.132 861.799 400.833 862.167 400.833ZM871.5 400.833 875.5 400.833C875.868 400.833 876.167 401.132 876.167 401.5 876.167 401.868 875.868 402.167 875.5 402.167L871.5 402.167C871.132 402.167 870.833 401.868 870.833 401.5 870.833 401.132 871.132 400.833 871.5 400.833ZM880.833 400.833 884.833 400.833C885.202 400.833 885.5 401.132 885.5 401.5 885.5 401.868 885.202 402.167 884.833 402.167L880.833 402.167C880.465 402.167 880.167 401.868 880.167 401.5 880.167 401.132 880.465 400.833 880.833 400.833ZM890.167 400.833 894.167 400.833C894.535 400.833 894.833 401.132 894.833 401.5 894.833 401.868 894.535 402.167 894.167 402.167L890.167 402.167C889.799 402.167 889.5 401.868 889.5 401.5 889.5 401.132 889.799 400.833 890.167 400.833ZM899.5 400.833 903.5 400.833C903.868 400.833 904.167 401.132 904.167 401.5 904.167 401.868 903.868 402.167 903.5 402.167L899.5 402.167C899.132 402.167 898.833 401.868 898.833 401.5 898.833 401.132 899.132 400.833 899.5 400.833ZM908.833 400.833 912.833 400.833C913.202 400.833 913.5 401.132 913.5 401.5 913.5 401.868 913.202 402.167 912.833 402.167L908.833 402.167C908.465 402.167 908.167 401.868 908.167 401.5 908.167 401.132 908.465 400.833 908.833 400.833ZM918.167 400.833 922.167 400.833C922.535 400.833 922.833 401.132 922.833 401.5 922.833 401.868 922.535 402.167 922.167 402.167L918.167 402.167C917.799 402.167 917.5 401.868 917.5 401.5 917.5 401.132 917.799 400.833 918.167 400.833ZM927.5 400.833 931.5 400.833C931.868 400.833 932.167 401.132 932.167 401.5 932.167 401.868 931.868 402.167 931.5 402.167L927.5 402.167C927.132 402.167 926.833 401.868 926.833 401.5 926.833 401.132 927.132 400.833 927.5 400.833ZM936.833 400.833 937.669 400.833C938.037 400.833 938.336 401.132 938.336 401.5 938.336 401.868 938.037 402.167 937.669 402.167L936.833 402.167C936.465 402.167 936.167 401.868 936.167 401.5 936.167 401.132 936.465 400.833 936.833 400.833ZM424.833 408.167 411.5 401.5 424.833 394.833ZM936.336 394.833 949.669 401.5 936.336 408.167Z" fill="#4F81BD"/><rect x="576" y="389" width="208" height="23" fill="#FFFFFF"/><text fill="#4896DC" font-family="Arial,Arial_MSFontService,sans-serif" font-weight="400" font-size="19" transform="translate(586.23 407)">Realisierungseinheiten</text><path d="M0 0 0.000104987 49.1786" stroke="#2AA82A" stroke-width="3" stroke-linejoin="round" stroke-miterlimit="10" fill="none" fill-rule="evenodd" transform="matrix(1 0 0 -1 996.5 103.679)"/></g></svg>